<svg width="47" height="47" xmlns="http://www.w3.org/2000/svg" xmlns:xlink="http://www.w3.org/1999/xlink" xml:space="preserve" overflow="hidden"><g transform="translate(-259 89)"><path d="M259-42 259-89 306-89 306-42Z"/><path d="M294.572-53.3953C294.34-53.3953 294.145-53.3005 293.99-53.1107 293.834-52.921 293.756-52.6218 293.756-52.2133 293.756-51.8183 293.839-51.5231 294.006-51.3275 294.172-51.132 294.369-51.0342 294.595-51.0342 294.824-51.0342 295.018-51.1276 295.177-51.3144 295.337-51.5013 295.417-51.7864 295.417-52.1697 295.417-52.5918 295.336-52.9016 295.173-53.0991 295.01-53.2966 294.81-53.3953 294.572-53.3953ZM285.737-53.3953C285.476-53.3953 285.259-53.2976 285.087-53.102 284.914-52.9064 284.828-52.6112 284.828-52.2162 284.828-51.8212 284.914-51.5255 285.087-51.329 285.259-51.1325 285.476-51.0342 285.737-51.0342 285.997-51.0342 286.213-51.1329 286.385-51.3304 286.557-51.5279 286.643-51.829 286.643-52.2336 286.643-52.6151 286.557-52.904 286.383-53.1005 286.21-53.2971 285.995-53.3953 285.737-53.3953ZM274.833-53.3953C274.571-53.3953 274.355-53.2976 274.182-53.102 274.01-52.9064 273.924-52.6112 273.924-52.2162 273.924-51.8212 274.01-51.5255 274.182-51.329 274.355-51.1325 274.571-51.0342 274.833-51.0342 275.092-51.0342 275.308-51.1329 275.48-51.3304 275.653-51.5279 275.739-51.829 275.739-52.2336 275.739-52.6151 275.652-52.904 275.479-53.1005 275.306-53.2971 275.09-53.3953 274.833-53.3953ZM287.448-53.7584 287.971-53.7584 287.971-52.0478C287.971-51.7748 287.981-51.5908 288.003-51.496 288.035-51.3585 288.105-51.2506 288.212-51.1721 288.318-51.0937 288.45-51.0545 288.607-51.0545 288.763-51.0545 288.911-51.0947 289.048-51.175 289.186-51.2554 289.283-51.3648 289.34-51.5032 289.397-51.6417 289.426-51.8425 289.426-52.1059L289.426-53.7584 289.948-53.7584 289.948-50.6741 289.481-50.6741 289.481-51.1271C289.241-50.7786 288.914-50.6044 288.502-50.6044 288.32-50.6044 288.15-50.6392 287.992-50.7089 287.835-50.7786 287.717-50.8662 287.641-50.9717 287.564-51.0773 287.511-51.2065 287.48-51.3595 287.458-51.4621 287.448-51.6247 287.448-51.8474ZM291.885-53.8281C292.071-53.8281 292.242-53.7947 292.398-53.7279 292.554-53.6611 292.671-53.5735 292.748-53.465 292.826-53.3566 292.88-53.2279 292.911-53.0788 292.93-52.982 292.94-52.8125 292.94-52.5705L292.94-50.6741 292.417-50.6741 292.417-52.5502C292.417-52.7632 292.397-52.9224 292.356-53.0279 292.315-53.1335 292.243-53.2177 292.14-53.2806 292.036-53.3435 291.915-53.375 291.775-53.375 291.552-53.375 291.36-53.3043 291.199-53.163 291.037-53.0216 290.956-52.7535 290.956-52.3585L290.956-50.6741 290.433-50.6741 290.433-53.7584 290.904-53.7584 290.904-53.3198C291.13-53.6586 291.458-53.8281 291.885-53.8281ZM285.737-53.8281C286.161-53.8281 286.508-53.6891 286.777-53.4113 287.046-53.1335 287.181-52.7496 287.181-52.2598 287.181-51.8629 287.121-51.5507 287.002-51.3232 286.883-51.0957 286.71-50.919 286.482-50.7931 286.255-50.6673 286.006-50.6044 285.737-50.6044 285.305-50.6044 284.956-50.7428 284.69-51.0197 284.424-51.2965 284.291-51.6954 284.291-52.2162 284.291-52.7874 284.45-53.2104 284.767-53.4854 285.032-53.7138 285.356-53.8281 285.737-53.8281ZM274.833-53.8281C275.257-53.8281 275.603-53.6891 275.873-53.4113 276.142-53.1335 276.276-52.7496 276.276-52.2598 276.276-51.8629 276.217-51.5507 276.098-51.3232 275.979-51.0957 275.805-50.919 275.578-50.7931 275.35-50.6673 275.102-50.6044 274.833-50.6044 274.401-50.6044 274.052-50.7428 273.786-51.0197 273.52-51.2965 273.387-51.6954 273.387-52.2162 273.387-52.7874 273.545-53.2104 273.863-53.4854 274.128-53.7138 274.451-53.8281 274.833-53.8281ZM277.171-54.8358 277.171-53.7584 277.696-53.7584 277.696-53.3518 277.171-53.3518 277.171-51.5482C277.171-51.3992 277.18-51.3033 277.198-51.2607 277.217-51.2181 277.247-51.1842 277.288-51.1591 277.33-51.1339 277.389-51.1213 277.467-51.1213 277.525-51.1213 277.602-51.1281 277.696-51.1416L277.772-50.6799C277.625-50.6489 277.493-50.6334 277.377-50.6334 277.187-50.6334 277.04-50.6634 276.935-50.7234 276.831-50.7835 276.757-50.8624 276.715-50.9601 276.672-51.0579 276.651-51.2636 276.651-51.5773L276.651-53.3518 276.268-53.3518 276.268-53.7584 276.651-53.7584 276.651-54.5222ZM295.373-54.9317 295.893-54.9317 295.893-50.6741 295.408-50.6741 295.408-51.0632C295.213-50.7573 294.925-50.6044 294.546-50.6044 294.3-50.6044 294.074-50.6721 293.868-50.8077 293.661-50.9432 293.502-51.1325 293.388-51.3754 293.275-51.6184 293.219-51.8977 293.219-52.2133 293.219-52.5212 293.27-52.8004 293.372-53.0512 293.475-53.3019 293.629-53.4941 293.834-53.6277 294.039-53.7613 294.269-53.8281 294.523-53.8281 294.708-53.8281 294.874-53.7888 295.019-53.7104 295.164-53.632 295.282-53.5299 295.373-53.404ZM280.616-54.9317 283.488-54.9317 283.488-54.4292 281.18-54.4292 281.18-53.1107 283.178-53.1107 283.178-52.6083 281.18-52.6083 281.18-50.6741 280.616-50.6741ZM269.677-54.9317 270.255-54.9317 272.491-51.5889 272.491-54.9317 273.031-54.9317 273.031-50.6741 272.453-50.6741 270.217-54.0197 270.217-50.6741 269.677-50.6741Z" stroke="#FB00FF" stroke-width="0.594785" stroke-linejoin="bevel" stroke-miterlimit="10" fill="#FB00FF" fill-rule="evenodd"/><text fill="#000000" fill-opacity="0" font-family="Arial,Arial_MSFontService,sans-serif" font-size="4.3273" x="269.677" y="-51.1453">Not Found</text><path d="M263.605-46.6048 263.605-84.3952 301.395-84.3952 301.395-46.6048Z" stroke="#FB00FF" stroke-width="1.982" stroke-miterlimit="10" fill="none"/><path d="M289.686-70.5439 289.686-67.0225 292.713-67.0225C293.357-67.0225 293.86-67.089 294.223-67.2221 294.586-67.3553 294.862-67.5682 295.051-67.8611 295.24-68.1539 295.334-68.4722 295.334-68.8158 295.334-69.3192 295.152-69.7331 294.786-70.0574 294.421-70.3817 293.843-70.5439 293.054-70.5439ZM278.781-70.5439 278.781-67.0225 281.809-67.0225C282.453-67.0225 282.956-67.089 283.319-67.2221 283.682-67.3553 283.958-67.5682 284.147-67.8611 284.335-68.1539 284.43-68.4722 284.43-68.8158 284.43-69.3192 284.247-69.7331 283.882-70.0574 283.516-70.3817 282.939-70.5439 282.15-70.5439ZM288.277-71.7201 292.996-71.7201C293.945-71.7201 294.666-71.6245 295.16-71.4333 295.654-71.2421 296.048-70.9045 296.343-70.4204 296.639-69.9364 296.786-69.4015 296.786-68.8158 296.786-68.0607 296.542-67.4242 296.053-66.9063 295.564-66.3884 294.809-66.0592 293.788-65.9189 294.16-65.7398 294.444-65.5631 294.637-65.3888 295.049-65.0113 295.438-64.5394 295.806-63.973L297.658-61.0761 295.886-61.0761 294.477-63.2905C294.066-63.9295 293.727-64.4184 293.461-64.7572 293.195-65.096 292.956-65.3332 292.746-65.4687 292.535-65.6042 292.321-65.6986 292.103-65.7519 291.944-65.7858 291.682-65.8027 291.319-65.8027L289.686-65.8027 289.686-61.0761 288.277-61.0761ZM277.373-71.7201 282.092-71.7201C283.041-71.7201 283.762-71.6245 284.256-71.4333 284.749-71.2421 285.144-70.9045 285.439-70.4204 285.734-69.9364 285.882-69.4015 285.882-68.8158 285.882-68.0607 285.638-67.4242 285.149-66.9063 284.66-66.3884 283.905-66.0592 282.883-65.9189 283.256-65.7398 283.539-65.5631 283.733-65.3888 284.144-65.0113 284.534-64.5394 284.902-63.973L286.753-61.0761 284.982-61.0761 283.573-63.2905C283.162-63.9295 282.823-64.4184 282.557-64.7572 282.29-65.096 282.052-65.3332 281.841-65.4687 281.631-65.6042 281.417-65.6986 281.199-65.7519 281.039-65.7858 280.778-65.8027 280.415-65.8027L278.781-65.8027 278.781-61.0761 277.373-61.0761ZM267.467-71.7201 275.163-71.7201 275.163-70.464 268.875-70.464 268.875-67.204 274.764-67.204 274.764-65.9552 268.875-65.9552 268.875-62.3321 275.41-62.3321 275.41-61.0761 267.467-61.0761Z" stroke="#FB00FF" stroke-width="0.99131" stroke-linejoin="bevel" stroke-miterlimit="10" fill="#FB00FF" fill-rule="evenodd"/><text fill="#000000" fill-opacity="0" font-family="Arial,Arial_MSFontService,sans-serif" font-size="10.644" x="267.467" y="-62.4066">ERR</text></g></svg>