<?xml version="1.0" encoding="UTF-8" standalone="no"?>
<!-- Created with Inkscape (http://www.inkscape.org/) -->

<svg
   width="120"
   height="120"
   viewBox="0 0 120 120"
   version="1.1"
   id="svg1"
   xmlns="http://www.w3.org/2000/svg"
   xmlns:svg="http://www.w3.org/2000/svg">
  <defs
     id="defs1" />
  <g
     id="layer1">
    <path
       id="rect41"
       style="fill:none;stroke:#000000;stroke-width:6.16581;stroke-linecap:round;stroke-linejoin:round;stroke-miterlimit:7.3"
       d="m 29.769518,29.18959 h 44.460967 c 4.366097,0 7.881041,3.514945 7.881041,7.881042 v 61.858736 c 0,4.366102 -3.514944,7.881042 -7.881041,7.881042 H 29.769518 c -4.366096,0 -7.881041,-3.51494 -7.881041,-7.881042 V 37.070632 c 0,-4.366097 3.514945,-7.881042 7.881041,-7.881042 z" />
    <path
       id="rect42"
       style="fill:none;stroke:#000000;stroke-width:5.74343;stroke-linecap:round;stroke-linejoin:round;stroke-miterlimit:7.3"
       d="m 36.204429,52.135949 h 31.591146 m 0,31.728103 H 36.204429" />
    <path
       id="path43"
       style="fill:none;stroke:#000000;stroke-width:5.74343;stroke-linecap:round;stroke-linejoin:round;stroke-miterlimit:7.3"
       d="M 36.204429,68 H 67.795575" />
    <path
       id="rect43"
       style="fill:none;stroke:#000000;stroke-width:6.16581;stroke-linecap:round;stroke-linejoin:round;stroke-miterlimit:7.3"
       d="m 37.888476,21.070632 c 0,-4.366097 3.514944,-7.881041 7.881041,-7.881041 h 44.460967 c 4.366098,0 7.881038,3.514944 7.881038,7.881041 v 61.858736 c 0,4.366097 -3.51494,7.881042 -7.881038,7.881042" />
  </g>
</svg>
