<?xml version="1.0" encoding="UTF-8" standalone="no"?>
<!-- Created with Inkscape (http://www.inkscape.org/) -->

<svg
   width="120"
   height="120"
   viewBox="0 0 120 120"
   version="1.1"
   id="svg1"
   xmlns="http://www.w3.org/2000/svg"
   xmlns:svg="http://www.w3.org/2000/svg">
  <defs
     id="defs1" />
  <g
     id="layer1">
    <g
       id="g14"
       transform="matrix(0.96942448,0,0,0.96942448,1.8345312,0.25952371)">
      <path
         id="rect9"
         style="fill:none;stroke:#000000;stroke-width:6.18924;stroke-linecap:round;stroke-linejoin:round;stroke-miterlimit:7.3;stroke-dasharray:none;stroke-dashoffset:17.406"
         d="M 79.618091,31.596395 H 91.388945 V 104.50181 H 28.611055 V 31.596395 h 11.770854" />
      <path
         id="rect10"
         style="fill:none;stroke:#000000;stroke-width:6.18924;stroke-linecap:round;stroke-linejoin:round;stroke-miterlimit:7.3;stroke-dasharray:none;stroke-dashoffset:17.406"
         d="m 74.352428,21.606726 h 4.784142 v 20.18803 H 40.86343 v -20.18803 h 4.784142" />
      <path
         style="fill:none;stroke:#000000;stroke-width:6.18924;stroke-linecap:round;stroke-linejoin:round;stroke-miterlimit:7.3;stroke-dasharray:none;stroke-dashoffset:17.406;stroke-opacity:1"
         id="path10"
         d="M 67.833376,26.580935 A 7.8333764,7.8333764 0 0 1 60.0416,34.4142 a 7.8333764,7.8333764 0 0 1 -7.874535,-7.750066 7.8333764,7.8333764 0 0 1 7.708139,-7.915582 7.8333764,7.8333764 0 0 1 7.956405,7.665994 z" />
      <path
         style="fill:none;stroke:#000000;stroke-width:6.18924;stroke-linecap:round;stroke-linejoin:round;stroke-miterlimit:7.3;stroke-dasharray:none;stroke-dashoffset:17.406"
         d="M 75.209606,87.110283 H 44.79039"
         id="path12" />
      <path
         style="fill:none;stroke:#000000;stroke-width:6.18924;stroke-linecap:round;stroke-linejoin:round;stroke-miterlimit:7.3;stroke-dasharray:none;stroke-dashoffset:17.406"
         d="M 75.209606,75.110283 H 44.79039"
         id="path13" />
      <path
         style="fill:none;stroke:#000000;stroke-width:6.18924;stroke-linecap:round;stroke-linejoin:round;stroke-miterlimit:7.3;stroke-dasharray:none;stroke-dashoffset:17.406"
         d="M 75.209606,63.110283 H 44.79039"
         id="path14" />
    </g>
  </g>
</svg>
