<?xml version="1.0" encoding="UTF-8" standalone="no"?>
<!-- Created with Inkscape (http://www.inkscape.org/) -->

<svg
   width="120"
   height="120"
   viewBox="0 0 120 120"
   version="1.1"
   id="svg1"
   xmlns="http://www.w3.org/2000/svg"
   xmlns:svg="http://www.w3.org/2000/svg">
  <defs
     id="defs1" />
  <g
     id="layer1">
    <path
       id="rect3"
       style="fill:#000000;fill-opacity:1;stroke:none;stroke-width:6.42007;stroke-linecap:round;stroke-miterlimit:7.3"
       d="m 28.492188,42.404775 6.906249,57.636725 a 10.367442,10.367442 0 0 0 10.292969,9.13281 h 28.617188 a 10.367442,10.367442 0 0 0 10.292969,-9.13281 l 6.90625,-57.636725 z m 20.082031,7.244141 c 1.541894,0 2.783203,1.241309 2.783203,2.783203 v 46.71484 c 0,1.541901 -1.241309,2.783211 -2.783203,2.783211 -1.541895,0 -2.783203,-1.24131 -2.783203,-2.783211 v -46.71484 c 0,-1.541894 1.241308,-2.783203 2.783203,-2.783203 z m 11.425781,0 c 1.541895,0 2.783203,1.241309 2.783203,2.783203 v 46.71484 c 0,1.541901 -1.241308,2.783211 -2.783203,2.783211 -1.541895,0 -2.783203,-1.24131 -2.783203,-2.783211 v -46.71484 c 0,-1.541894 1.241308,-2.783203 2.783203,-2.783203 z m 11.425781,0 c 1.541895,0 2.783203,1.241309 2.783203,2.783203 v 46.71484 c 0,1.541901 -1.241308,2.783211 -2.783203,2.783211 -1.541894,0 -2.783203,-1.24131 -2.783203,-2.783211 v -46.71484 c 0,-1.541894 1.241309,-2.783203 2.783203,-2.783203 z" />
  </g>
  <g
     id="layer2"
     style="display:inline">
    <path
       id="rect4"
       style="fill:#000000;fill-opacity:1;stroke:none;stroke-width:6.06836;stroke-linecap:round;stroke-miterlimit:7.3"
       d="m 34.483719,21.170868 h 51.032562 a 9.8235232,9.8235232 41.920458 0 1 9.766821,8.769563 l 1.053656,9.764008 H 23.663242 l 1.053656,-9.764008 a 9.8235232,9.8235232 138.07954 0 1 9.766821,-8.769563 z"
       transform="translate(0,-1.3357006)" />
    <path
       id="rect5"
       style="fill:#000000;fill-opacity:1;stroke-width:14.1299;stroke-linecap:round;stroke-miterlimit:7.3"
       d="m 54.749842,8.2551413 h 10.50032 A 4.4863681,4.4863681 45 0 1 69.73653,12.741509 V 24.095166 H 50.263474 V 12.741509 a 4.4863681,4.4863681 135 0 1 4.486368,-4.4863677 z"
       transform="translate(0,2.5705494)" />
  </g>
</svg>
