<?xml version="1.0" encoding="UTF-8" standalone="no"?>
<!-- Created with Inkscape (http://www.inkscape.org/) -->

<svg
   width="120"
   height="120"
   viewBox="0 0 120 120"
   version="1.1"
   id="svg1"
   xml:space="preserve"
   xmlns="http://www.w3.org/2000/svg"
   xmlns:svg="http://www.w3.org/2000/svg"><defs
     id="defs1" /><g
     id="layer1-7"
     style="fill:#ffffff;fill-opacity:1"><path
       style="font-weight:bold;font-size:74.6667px;font-family:Arial;-inkscape-font-specification:'Arial Bold';text-align:center;letter-spacing:0px;text-anchor:middle;fill:#ffffff;fill-opacity:1;stroke-width:7;stroke-linecap:round;stroke-linejoin:round;stroke-miterlimit:7.3"
       d="m 73.835946,78.558162 v -5.616304 c 0,-1.418186 0.867852,-2.691912 2.187694,-3.210824 l 21.218375,-8.342267 c 0.778683,-0.306163 0.776622,-1.408873 -0.0032,-1.712123 L 76.026814,51.427523 c -1.320841,-0.51366 -2.190868,-1.785505 -2.190868,-3.202709 v -5.543387 c 0,-1.111039 1.137847,-1.858694 2.157632,-1.417733 L 106.9621,54.654656 c 2.15546,0.932032 3.55095,3.055806 3.55095,5.404146 v 1.01261 c 0,2.349392 -1.393,4.475192 -3.54708,5.413052 L 75.99123,79.970483 c -1.017418,0.442972 -2.155284,-0.302653 -2.155284,-1.412321 z"
       transform="translate(0,-0.236982)"
       id="path4" /><path
       style="font-weight:bold;font-size:74.6667px;font-family:Arial;-inkscape-font-specification:'Arial Bold';text-align:center;letter-spacing:0px;text-anchor:middle;fill:#ff9200;fill-opacity:1;stroke-width:7;stroke-linecap:round;stroke-linejoin:round;stroke-miterlimit:7.3"
       d="M 50.065617,85.58633 62.205212,34.887634 c 0.321004,-1.340611 1.519591,-2.286082 2.898098,-2.286082 h 2.991302 c 1.197563,0 2.079384,1.120768 1.797612,2.28471 l -12.274029,50.70144 c -0.324525,1.340544 -1.524532,2.28471 -2.903798,2.28471 h -2.845468 c -1.198735,0 -2.082453,-1.120301 -1.803312,-2.286082 z"
       transform="translate(0,-0.236982)"
       id="path3" /><path
       style="font-weight:bold;font-size:74.6667px;font-family:Arial;-inkscape-font-specification:'Arial Bold';text-align:center;letter-spacing:0px;text-anchor:middle;fill:#ffffff;fill-opacity:1;stroke-width:7;stroke-linecap:round;stroke-linejoin:round;stroke-miterlimit:7.3"
       d="M 43.971871,79.935042 13.034766,66.482789 C 10.880424,65.546026 9.4869552,63.420606 9.4869551,61.071412 v -1.085527 c 0,-2.348491 1.3951269,-4.472558 3.5503889,-5.405433 l 30.93296,-13.388893 c 1.019444,-0.441252 2.157294,0.30611 2.157294,1.416951 v 5.68922 c 0,1.415679 -0.873375,2.684606 -2.195711,3.190149 l -21.165882,8.09195 c -0.779509,0.298013 -0.786326,1.398373 -0.01057,1.706021 l 21.187014,8.402268 c 1.319029,0.523096 2.185145,1.798315 2.185145,3.217282 v 5.616303 c 0,1.109926 -1.137863,1.855933 -2.155727,1.413339 z"
       transform="translate(0,-0.236982)"
       id="text40-9" /></g></svg>
