<?xml version="1.0" encoding="UTF-8" standalone="no"?>
<!-- Created with Inkscape (http://www.inkscape.org/) -->

<svg
   width="120"
   height="120"
   viewBox="0 0 120 120"
   version="1.1"
   id="svg1"
   xmlns="http://www.w3.org/2000/svg"
   xmlns:svg="http://www.w3.org/2000/svg">
  <defs
     id="defs1" />
  <g
     id="layer1">
    <path
       id="rect4"
       style="fill:none;stroke:#000000;stroke-width:6;stroke-linecap:round;stroke-linejoin:round;stroke-miterlimit:7.3"
       d="M 98.27314,60 V 82.88617 A 15.38697,15.38697 135 0 1 82.88617,98.27314 l -45.77234,0 A 15.38697,15.38697 45 0 1 21.72686,82.88617 V 37.11383 A 15.38697,15.38697 135 0 1 37.11383,21.72686 h 61.15931" />
    <path
       id="rect5"
       style="stroke-linecap:round;stroke-linejoin:round;stroke-miterlimit:7.3"
       d="m 70.958984,36.255859 c -11.08202,0 -20.130859,9.04884 -20.130859,20.13086 v 12.660156 l -7.662109,-7.662109 a 3,3 0 0 0 -4.244141,0 3,3 0 0 0 0,4.242187 l 12.779297,12.777344 a 3.0003,3.0003 0 0 0 4.242187,0 L 68.720703,65.626953 a 3,3 0 0 0 0,-4.242187 3,3 0 0 0 -4.242187,0 l -7.650391,7.65039 V 56.386719 c 0,-7.83938 6.29148,-14.13086 14.130859,-14.13086 h 41.160156 a 3,3 0 0 0 3,-3 3,3 0 0 0 -3,-3 z" />
  </g>
</svg>
