<?xml version="1.0" encoding="UTF-8" standalone="no"?>
<svg
   version="1.1"
   width="40"
   height="40"
   viewBox="0 0 40 40.000001"
   id="svg2"
   xmlns="http://www.w3.org/2000/svg"
   xmlns:svg="http://www.w3.org/2000/svg">
  <defs
     id="defs2" />
  <g
     transform="translate(-205.54209,-161.2715)"
     id="g2">
    <g
       data-paper-data="{&quot;isPaintingLayer&quot;:true}"
       fill="none"
       fill-rule="nonzero"
       stroke="#000000"
       stroke-width="4"
       stroke-linecap="round"
       stroke-linejoin="miter"
       stroke-miterlimit="10"
       stroke-dasharray="none"
       stroke-dashoffset="0"
       style="mix-blend-mode:normal;stroke-width:3.9998;stroke-linejoin:round;stroke-dasharray:none"
       id="g1"
       transform="matrix(0.89554554,0,0,0.89554554,7.7341796,20.656717)">
      <path
         d="m 223.03324,185.21764 c 0,0 -0.6219,-22.3117 15.75129,-22.51172 15.28655,0.2945 17.97591,20.17195 17.97591,20.17195 l 4.17543,-2.44006 c 0,0 2.15931,0.76494 2.43522,1.87602 0.27592,1.11107 -5.28675,13.13091 -6.14292,13.62521 -0.76537,0.44189 -12.95094,-2.52506 -13.50724,-3.39643 -0.55629,-0.87138 0.0185,-2.93949 0.0185,-2.93949 l 4.02772,-2.20881 c 0,0 -1.07107,-15.59461 -8.22472,-15.78877 -7.33746,0.22876 -8.88846,15.91148 -8.88846,15.91148 z"
         id="path1"
         style="stroke-width:3.9998;stroke-linejoin:round;stroke-dasharray:none" />
    </g>
  </g>
</svg>
