<svg width="120" height="120" xmlns="http://www.w3.org/2000/svg" xmlns:xlink="http://www.w3.org/1999/xlink" xml:space="preserve" overflow="hidden"><g transform="translate(-580 -300)"><path d="M657.861 330.243C657.838 330.256 657.745 330.245 657.572 330.379 657.768 330.293 657.905 330.217 657.861 330.243Z" fill="#F7CD04"/><path d="M650.718 309.958 650.718 318.952C651.505 318.954 652.288 318.965 653.062 318.985 658.029 318.821 664.695 320.087 671.143 322.132 674.423 323.172 677.596 324.264 680.358 325.711 683.12 327.158 685.47 328.962 687.101 331.426 687.958 332.721 687.959 334.402 687.103 335.697 685.213 338.556 682.271 339.881 679.446 340.736 676.801 341.537 674.046 341.972 671.409 342.453 674.391 346.536 676.202 351.534 676.325 356.962L676.329 357.507C676.329 371.598 664.945 383.043 650.854 383.118 650.851 383.118 650.848 383.118 650.845 383.117 650.842 383.117 650.839 383.117 650.837 383.117 650.834 383.116 650.831 383.116 650.828 383.116 650.825 383.116 650.822 383.115 650.819 383.115 650.816 383.115 650.814 383.115 650.811 383.114 650.808 383.114 650.805 383.114 650.802 383.114 650.799 383.113 650.797 383.113 650.794 383.113 650.791 383.112 650.788 383.112 650.785 383.112 650.782 383.112 650.779 383.111 650.776 383.111 650.773 383.111 650.771 383.111 650.768 383.11 650.765 383.11 650.762 383.11 650.759 383.109 650.756 383.109 650.753 383.109 650.751 383.109 650.748 383.108 650.745 383.108 650.742 383.108 650.739 383.107 650.736 383.107 650.733 383.107 650.731 383.107 650.728 383.106 650.725 383.106 650.722 383.106 650.719 383.106 650.716 383.105 650.716 383.105 650.263 384.041 650.428 384.479 650.755 385.344 652.709 385.218 652.648 386.141 652.6 386.878 650.67 386.489 650.716 387.227 650.797 388.511 654.299 387.395 654.293 388.683 654.286 390.186 650.031 388.842 650.099 390.344 650.142 391.286 652.614 390.221 652.813 391.142 653.023 392.115 650.391 392.11 650.552 393.092 650.708 394.041 653.181 393.217 653.224 394.178 653.266 395.117 650.779 394.531 650.716 395.469 650.643 396.554 653.546 396.261 653.388 397.336 653.252 398.264 650.743 397.279 650.716 398.217 650.688 399.203 653.388 398.319 653.471 399.303 653.56 400.371 650.497 399.915 650.716 400.964 651.093 402.764 655.955 399.857 656.184 401.68 656.453 403.819 650.922 402.058 650.182 404.082 650.052 404.438 650.716 405.086 650.716 405.086 650.721 405.086 650.727 405.086 650.732 405.087 650.737 405.087 650.742 405.087 650.748 405.088 650.753 405.088 650.758 405.088 650.764 405.089 650.769 405.089 650.774 405.089 650.779 405.09 650.785 405.09 650.79 405.09 650.795 405.091 650.8 405.091 650.806 405.092 650.811 405.092 650.816 405.092 650.821 405.092 650.827 405.093 650.832 405.093 650.837 405.093 650.843 405.094 650.848 405.094 650.853 405.094 650.858 405.095 650.864 405.095 650.869 405.095 650.874 405.096 650.879 405.096 650.885 405.096 650.89 405.097 650.895 405.097 650.9 405.097 650.906 405.098 650.911 405.098 650.916 405.099 650.922 405.099 650.927 405.099 650.932 405.099 650.937 405.1 650.943 405.1 650.948 405.1 650.953 405.101 650.958 405.101 650.964 405.101 650.969 405.102 677.157 404.963 698.313 383.694 698.313 357.506L698.302 356.495C697.728 330.628 676.592 309.958 650.718 309.958Z" fill="#F79E04"/><path d="M649.864 322.852C642.488 322.941 635.579 324.4 631.139 332.607 629.487 335.66 631.376 340.368 632.601 343.675 633.429 343.64 634.248 343.835 634.973 344.236L643.616 349.226C644.331 349.642 644.919 350.247 645.314 350.974 648.865 350.355 654.767 349.403 656.319 346.211 661.093 336.388 679.451 340.414 683.961 333.592 679.981 327.583 661.173 322.527 653.048 322.882 651.981 322.855 650.918 322.839 649.864 322.852ZM649.203 326.682C649.89 326.674 650.584 326.683 651.279 326.701 652.862 326.632 659.33 327.178 661.713 327.661 661.713 327.661 662.989 327.91 662.913 328.491 662.837 329.071 655.979 329.268 655.63 330.04 655.367 330.618 660.61 330.34 660.657 331.035 660.704 331.73 656.846 331.634 656.852 332.199 656.859 332.763 660.726 332.516 660.291 333.292 659.856 334.067 654.375 335.406 654.835 336.156 655.294 336.905 660.588 335.253 661.384 336.084 661.503 336.209 661.588 336.322 661.648 336.425 661.884 336.834 661.055 337.347 660.541 337.497 658.097 338.211 655.787 339.732 654.303 341.665 653.699 342.452 652.922 343.924 652.08 344.425 651.015 345.06 649.555 345.466 648.408 345.665 647.43 345.835 645.912 345.352 645.048 344.849L638.487 341.027C637.199 340.277 635.467 338.638 635.134 337.201 634.836 335.92 634.732 334.421 635.272 333.424 638.166 328.073 644.395 326.74 649.203 326.682Z" fill="#F79E04"/><path d="M622.175 358.341 601.438 397.716C601.438 397.716 601.441 397.805 601.441 397.823 599.402 402.127 598.948 406.17 602.945 408.761 603.069 408.857 603.196 408.948 603.329 409.025 603.341 409.032 603.355 409.037 603.368 409.044L603.375 409.049C603.403 409.064 603.432 409.076 603.461 409.09 603.547 409.135 603.634 409.178 603.725 409.216 607.973 411.401 611.267 408.989 613.98 405.057 613.994 405.049 614.068 405.008 614.068 405.008L637.799 367.362Z" fill="#2F34BB"/><path d="M634.154 345.655C631.995 344.408 629.234 345.147 627.988 347.306L624.67 353.606 640.653 362.834 644.45 356.81C645.696 354.651 644.955 351.891 642.796 350.645Z" fill="#2F34BB"/><path d="M581.687 367.56 601.35 401.616 621.642 389.901 601.98 355.845Z" fill="#CF2A2A"/></g></svg>