<svg width="49" height="49" xmlns="http://www.w3.org/2000/svg" xmlns:xlink="http://www.w3.org/1999/xlink" xml:space="preserve" overflow="hidden"><g transform="translate(-358 89)"><path d="M358.995-64.5C358.995-77.4812 369.519-88.0046 382.5-88.0046 395.481-88.0046 406.005-77.4812 406.005-64.5 406.005-51.5188 395.481-40.9954 382.5-40.9954 369.519-40.9954 358.995-51.5188 358.995-64.5Z" stroke="#FF0000" stroke-width="1.99075" stroke-miterlimit="10" fill="none"/><path d="M384.019-69.8087C383.026-69.8087 382.172-69.4677 381.456-68.7857 380.74-68.1037 380.382-66.965 380.382-65.3696 380.382-64.0923 380.726-63.0861 381.413-62.3511 382.1-61.6161 382.961-61.2486 383.997-61.2486 385.053-61.2486 385.922-61.6197 386.604-62.362 387.286-63.1042 387.627-64.1574 387.627-65.5214 387.627-66.3842 387.481-67.1373 387.189-67.7807 386.898-68.4242 386.471-68.9231 385.91-69.2773 385.348-69.6316 384.718-69.8087 384.019-69.8087ZM390.824-70.8281 392.263-70.8281 397.83-62.5066 397.83-70.8281 399.174-70.8281 399.174-60.2291 397.736-60.2291 392.169-68.558 392.169-60.2291 390.824-60.2291ZM365.165-70.8281 366.568-70.8281 366.568-60.2291 365.165-60.2291ZM373.226-71.0089C374.287-71.0089 375.178-70.739 375.901-70.1991 376.624-69.6593 377.128-68.9002 377.412-67.9217L376.032-67.5964C375.786-68.3676 375.429-68.9291 374.962-69.2809 374.494-69.6328 373.906-69.8087 373.197-69.8087 372.383-69.8087 371.702-69.6135 371.155-69.2231 370.608-68.8327 370.224-68.3085 370.002-67.6506 369.78-66.9927 369.669-66.3143 369.669-65.6154 369.669-64.7141 369.801-63.9272 370.063-63.2548 370.326-62.5825 370.734-62.08 371.289-61.7474 371.843-61.4148 372.443-61.2486 373.089-61.2486 373.875-61.2486 374.54-61.4751 375.084-61.9282 375.629-62.3812 375.998-63.0536 376.191-63.9453L377.593-63.591C377.299-62.4391 376.77-61.5606 376.006-60.9557 375.242-60.3508 374.308-60.0484 373.205-60.0484 372.062-60.0484 371.133-60.281 370.418-60.7461 369.702-61.2112 369.157-61.8848 368.784-62.7668 368.41-63.6489 368.223-64.596 368.223-65.6082 368.223-66.7119 368.434-67.6747 368.856-68.4965 369.278-69.3183 369.878-69.9425 370.656-70.369 371.435-70.7956 372.291-71.0089 373.226-71.0089ZM384.012-71.0161C384.99-71.0161 385.872-70.7823 386.658-70.3148 387.444-69.8473 388.043-69.1954 388.455-68.3591 388.867-67.5229 389.073-66.5746 389.073-65.5142 389.073-64.4393 388.856-63.4778 388.422-62.6295 387.988-61.7812 387.374-61.1389 386.578-60.7027 385.783-60.2665 384.925-60.0484 384.005-60.0484 383.007-60.0484 382.115-60.2894 381.33-60.7714 380.544-61.2534 379.949-61.9113 379.544-62.7451 379.139-63.579 378.936-64.461 378.936-65.3913 378.936-67.1505 379.409-68.5278 380.354-69.5231 381.298-70.5184 382.518-71.0161 384.012-71.0161Z" stroke="#FF0000" stroke-width="1.50482" stroke-linejoin="round" stroke-miterlimit="10" fill="#FF0000" fill-rule="evenodd"/><text fill="#000000" fill-opacity="0" font-family="Arial,Arial_MSFontService,sans-serif" font-size="10.9677" x="365.165" y="-61.4194">ICON</text><path d="M385.731-53.2845 385.731-51.7827 386.817-51.7827C387.176-51.7827 387.431-51.8496 387.582-51.9834 387.733-52.1171 387.808-52.3053 387.808-52.548 387.808-52.7237 387.764-52.8742 387.675-52.9994 387.586-53.1245 387.469-53.2071 387.324-53.2473 387.23-53.2721 387.058-53.2845 386.805-53.2845ZM385.175-53.7803 386.759-53.7803C387.038-53.7803 387.251-53.767 387.399-53.7402 387.605-53.7058 387.778-53.6404 387.917-53.5439 388.057-53.4474 388.169-53.3122 388.254-53.1384 388.339-52.9645 388.382-52.7734 388.382-52.5652 388.382-52.2079 388.268-51.9055 388.041-51.6581 387.813-51.4106 387.402-51.2869 386.808-51.2869L385.731-51.2869 385.731-49.5788 385.175-49.5788ZM380.315-53.7803 381.152-53.7803 382.146-50.8055C382.238-50.5284 382.305-50.3211 382.347-50.1835 382.395-50.3364 382.469-50.5609 382.571-50.857L383.577-53.7803 384.325-53.7803 384.325-49.5788 383.789-49.5788 383.789-53.0954 382.568-49.5788 382.066-49.5788 380.851-53.1555 380.851-49.5788 380.315-49.5788ZM376.495-53.7803 379.826-53.7803 379.826-53.2845 378.436-53.2845 378.436-49.5788 377.88-49.5788 377.88-53.2845 376.495-53.2845Z" stroke="#FF0000" stroke-width="0.376204" stroke-linejoin="round" stroke-miterlimit="10" fill="#FF0000" fill-rule="evenodd"/><text fill="#000000" fill-opacity="0" font-family="Arial,Arial_MSFontService,sans-serif" font-size="4.20152" x="376.495" y="-50.104">TMP</text></g></svg>