<?xml version="1.0" encoding="UTF-8" standalone="no"?>
<svg
   version="1.1"
   width="40"
   height="40"
   viewBox="0 0 40 40.000001"
   id="svg2"
   xml:space="preserve"
   xmlns="http://www.w3.org/2000/svg"
   xmlns:svg="http://www.w3.org/2000/svg"><defs
     id="defs2" /><g
     transform="matrix(1.6464824,0,0,1.6464824,-351.35108,-278.22067)"
     id="g2"><path
       style="fill:none;stroke-width:1.17463;stroke-linecap:square;stroke-linejoin:miter;stroke-miterlimit:6;stroke-dasharray:none;stroke-dashoffset:17.406"
       id="path13"
       d="m 225.43658,174.13951 a 7.2778912,8.4247103 0 0 1 -7.23924,8.42459 7.2778912,8.4247103 0 0 1 -7.31613,-8.33511 7.2778912,8.4247103 0 0 1 7.16154,-8.51312 7.2778912,8.4247103 0 0 1 7.39219,8.24469 z" /><g
       id="g17"
       transform="matrix(1.8219326,0,0,1.8219326,-185.73885,-145.09074)"><path
         id="rect15"
         style="fill:none;stroke:#000000;stroke-width:0.666716;stroke-linecap:square;stroke-miterlimit:6;stroke-dasharray:none;stroke-dashoffset:17.406;stroke-opacity:1"
         d="m 222.19461,177.05067 3.52217,0.46313 2.83849,-0.94833 2.22748,4.08003 -1.49969,3.79333 -3.67655,-0.72779 -4.00736,0.37493 -0.90423,-3.39636 z" /><path
         id="rect16"
         style="fill:none;stroke:#000000;stroke-width:0.666716;stroke-linecap:square;stroke-miterlimit:6;stroke-dasharray:none;stroke-dashoffset:17.406;stroke-opacity:1"
         d="m 226.89705,173.94748 0.86011,-0.2867 0.86012,0.19849 0.66163,0.84908 -0.61752,0.76088 -2.02899,0.52929 -0.63958,-0.0882 0.26465,-1.02552 z" /><path
         id="rect17"
         style="stroke:none;stroke-width:0.666716;stroke-linecap:square;stroke-miterlimit:6;stroke-dasharray:none;stroke-dashoffset:17.406"
         d="m 224.90387,173.82879 0.68616,0.5614 0.35868,4.30412 -0.68616,-0.5614 z" /></g></g></svg>
