<?xml version="1.0" encoding="UTF-8" standalone="no"?>
<!-- Created with Inkscape (http://www.inkscape.org/) -->

<svg
   width="120"
   height="120"
   viewBox="0 0 120 120"
   version="1.1"
   id="svg1"
   xml:space="preserve"
   xmlns="http://www.w3.org/2000/svg"
   xmlns:svg="http://www.w3.org/2000/svg"><defs
     id="defs1" /><path
     style="display:inline;fill:#9000ff;fill-opacity:1;stroke:none;stroke-width:10.1478;stroke-linecap:round;stroke-linejoin:round;stroke-miterlimit:7.3"
     d="M 79.99323,70.806092 H 17.53927 c 1.69626,5.467869 4.50107,9.469867 4.50107,9.469867 a 5.0743588,5.0743588 0 0 1 0.48954,0.846302 c 0,0 2.26507,4.859856 6.55042,9.204285 4.28535,4.344429 9.69432,7.744526 17.40569,6.033126 8.82233,-1.957953 23.23949,-7.813638 35.08886,-13.154356 2.91851,-1.315425 5.68197,-2.594968 8.20338,-3.781605 -0.99329,-0.666562 -1.98238,-1.392266 -2.97296,-2.184134 -2.28131,-1.823682 -4.56409,-3.993924 -6.81204,-6.433485 z"
     id="path19" /><g
     id="g16"
     style="display:inline;fill:#ffffff;fill-opacity:1"><path
       id="path16"
       style="fill:#ffffff;fill-opacity:1;stroke-linecap:round;stroke-linejoin:round;stroke-miterlimit:7.3"
       d="M 69.541566,5.3666388 C 69.092959,5.3526957 68.644244,5.3595175 68.195863,5.3900763 66.40234,5.5123116 64.628155,6.0052468 63.016176,6.9955451 58.612763,9.7007236 28.000353,29.757507 13.750551,45.421326 5.7934931,54.167958 6.0195377,65.003886 8.1821909,72.708435 c 2.0508441,7.306221 5.5749291,12.33705 5.9550781,12.873047 0.309555,0.664202 2.898084,6.127977 8.181641,11.484375 5.610974,5.688333 14.8996,11.244223 26.4375,8.683593 10.443112,-2.31766 24.608227,-8.238785 36.519531,-13.607421 10.559345,-4.759284 18.163529,-8.578178 19.994139,-9.501953 0.46801,-0.187294 0.9297,-0.402758 1.37891,-0.662109 a 5.0005,5.0005 0 0 0 0.12109,-0.07227 l 0.26953,-0.166016 a 5.0005,5.0005 0 0 0 0.11133,-0.07031 c 0.0395,-0.02579 0.0723,-0.05777 0.11133,-0.08398 a 5,5 0 0 0 0.20898,-0.15625 c 2.95095,-2.085112 4.53595,-5.375793 5.19336,-8.738282 0.68185,-3.487439 0.53824,-7.291375 -0.14843,-11.416015 -1.37327,-8.248843 -5.01983,-17.821524 -10.61915,-27.382813 v -0.002 a 5,5 0 0 0 -0.002,-0.002 C 96.295813,24.328186 89.790384,16.554851 83.326722,11.464295 80.094458,8.9186753 76.873131,7.0114492 73.492738,6.0150763 72.225091,5.6414364 70.887387,5.4084682 69.541566,5.3666388 Z m -0.580078,9.9550782 c 0.36911,-0.01505 0.903542,0.04948 1.703125,0.285156 1.599166,0.471355 3.928767,1.707873 6.474609,3.71289 5.091686,4.010036 11.058626,10.967398 16.128907,19.625 5.070281,8.657604 8.285281,17.36834 9.384761,23.972657 0.54975,3.302158 0.54661,6.068701 0.19727,7.855469 -0.31642,1.61841 -0.77697,2.203625 -1.06836,2.4375 -0.0215,0.0109 -0.42446,0.208024 -0.47266,0.232421 -0.37266,0.09226 -1.00735,0.102119 -2.18945,-0.265625 C 97.47866,72.666676 95.126375,71.381392 92.566957,69.335389 87.44812,65.243383 81.490649,58.22382 76.455629,49.544373 71.420601,40.864913 68.26314,32.174571 67.221254,25.632263 66.700311,22.36111 66.733841,19.637518 67.098207,17.905701 c 0.364366,-1.731817 0.875345,-2.218501 1.152344,-2.388672 0.138499,-0.08509 0.341828,-0.180262 0.710937,-0.195312 z m -12.066406,7.93164 c 0.08689,1.283236 0.235646,2.597828 0.451172,3.951172 1.30821,8.214633 4.898263,17.771765 10.458984,27.357422 5.560713,9.585645 12.05524,17.41798 18.517578,22.583984 0.976158,0.780342 1.950853,1.495484 2.929688,2.152344 -2.484709,1.169365 -5.207954,2.430284 -8.083985,3.726563 -11.676892,5.262982 -25.884206,11.033435 -34.578125,12.96289 -7.599127,1.68649 -12.929368,-1.664117 -17.152343,-5.945312 -4.222976,-4.281195 -6.455079,-9.070313 -6.455079,-9.070313 a 5.0005,5.0005 0 0 0 -0.482421,-0.833984 c 0,0 -3.060363,-4.327154 -4.689453,-10.13086 C 16.182009,64.20356 15.913991,57.906258 21.148988,52.151795 29.10363,43.407809 45.636413,31.164851 56.895082,23.253357 Z" /></g><path
     id="path18"
     style="display:inline;fill:#9000ff;fill-opacity:1;stroke:none;stroke-width:10.5997;stroke-linecap:round;stroke-linejoin:round;stroke-miterlimit:7.3"
     d="m 94.27664,70.806092 c 1.74315,1.18343 3.32119,1.997609 4.55869,2.424262 -2.84825,8.928008 -7.33516,23.854066 -7.29763,29.260916 0.057,8.21667 4.43709,14.8211 9.80263,14.77744 5.36554,-0.0437 9.7012,-6.71765 9.7012,-14.93478 l -0.002,-0.15941 -0.002,-0.15734 c -0.0803,-5.794743 -5.30238,-22.153081 -8.12573,-30.594154 0.0491,-0.187949 0.0963,-0.392893 0.14078,-0.616934 z" /></svg>
