<?xml version="1.0" encoding="UTF-8" standalone="no"?>
<!-- Created with Inkscape (http://www.inkscape.org/) -->

<svg
   width="120"
   height="120"
   viewBox="0 0 120 120"
   version="1.1"
   id="svg1"
   xml:space="preserve"
   xmlns="http://www.w3.org/2000/svg"
   xmlns:svg="http://www.w3.org/2000/svg"><defs
     id="defs1" /><g
     transform="translate(-580,-300)"
     id="g1"
     style="fill:#8f8f8f;fill-opacity:1"><path
       d="m 623.496,303.564 v 16.592 l -11.732,-11.732 -23.34,23.34 11.732,11.732 h -16.592 v 33.008 h 16.592 l -11.732,11.732 23.34,23.34 11.732,-11.732 v 16.592 h 33.008 v -16.592 l 11.732,11.732 23.34,-23.34 -11.732,-11.732 h 16.592 v -33.008 h -16.592 l 11.732,-11.732 -23.34,-23.34 -11.732,11.732 v -16.592 z m 10.705,28.176 v 10.526 c -7.752,2.526 -12.976,9.78 -12.916,17.933 0.016,0.766 0.078,1.53 0.188,2.287 l -9.151,5.282 c -0.723,-2.424 -1.124,-4.933 -1.193,-7.461 -0.135,-13.816 9.537,-25.791 23.072,-28.567 z m 11.598,0.033 c 13.185,2.703 22.755,14.158 23.068,27.614 l 0.006,0.613 c -0.045,2.631 -0.449,5.244 -1.201,7.766 l -9.151,-5.284 c 0.121,-0.822 0.186,-1.651 0.196,-2.482 l -0.006,-0.398 c -0.181,-7.944 -5.358,-14.908 -12.912,-17.37 z m -5.918,20.709 c 4.135,-0.065 7.547,3.223 7.635,7.358 l 0.002,0.16 c -10e-4,4.137 -3.342,7.496 -7.479,7.518 -4.136,0.021 -7.512,-3.302 -7.557,-7.438 -0.044,-4.137 3.262,-7.532 7.399,-7.598 z m -13.336,20.467 c 3.54,3.694 8.438,5.777 13.555,5.766 5.051,-0.035 9.874,-2.111 13.373,-5.756 l 8.863,5.117 c -5.407,6.736 -13.545,10.697 -22.182,10.797 -8.746,-0.006 -17.018,-3.975 -22.494,-10.795 z"
       id="path1"
       style="fill:#8f8f8f;fill-opacity:1" /></g></svg>
