<?xml version="1.0" encoding="UTF-8" standalone="no"?>
<!-- Created with Inkscape (http://www.inkscape.org/) -->

<svg
   width="120"
   height="120"
   viewBox="0 0 120 120"
   version="1.1"
   id="svg1"
   xmlns="http://www.w3.org/2000/svg"
   xmlns:svg="http://www.w3.org/2000/svg">
  <defs
     id="defs1" />
  <g
     id="layer1">
    <path
       id="path10"
       style="stroke-width:4.87488;stroke-linecap:round;stroke-linejoin:round;stroke-miterlimit:7.3"
       d="m 58.322266,10.476562 c -3.544415,0 -6.417969,2.873554 -6.417969,6.417969 v 13.31836 a 30.925301,30.925301 0 0 0 -7.226563,3.013671 l -9.433593,-9.433593 c -2.50628,-2.50628 -6.567939,-2.50628 -9.074219,0 l -2.376953,2.376953 c -2.50628,2.50628 -2.50628,6.567939 0,9.074219 l 9.421875,9.421875 a 30.925301,30.925301 0 0 0 -3.042969,7.238281 H 16.894531 c -3.544415,0 -6.417968,2.873554 -6.417969,6.417969 v 3.355468 c 0,3.544415 2.873554,6.417969 6.417969,6.417969 h 13.3125 a 30.925301,30.925301 0 0 0 3.019531,7.226563 l -9.433593,9.433593 c -2.50628,2.50628 -2.50628,6.567939 0,9.074219 l 2.376953,2.376953 c 2.50628,2.50628 6.567939,2.50628 9.074219,0 l 9.425781,-9.425781 a 30.925301,30.925301 0 0 0 7.234375,3.035156 v 13.289064 c 0,3.54441 2.873554,6.41797 6.417969,6.41797 h 3.355468 c 3.544415,0 6.417969,-2.87356 6.417969,-6.41797 V 89.800781 a 30.925301,30.925301 0 0 0 7.228516,-3.02539 l 9.43164,9.43164 c 2.50628,2.50628 6.567939,2.50628 9.074219,0 l 2.376953,-2.376953 c 2.50628,-2.50628 2.50628,-6.567939 0,-9.074219 l -9.427734,-9.427734 a 30.925301,30.925301 0 0 0 3.029297,-7.232422 h 13.296876 c 3.54441,0 6.41797,-2.873554 6.41797,-6.417969 v -3.355468 c 0,-3.544415 -2.87356,-6.417969 -6.41797,-6.417969 H 89.78125 a 30.925301,30.925301 0 0 0 -3.007812,-7.226563 l 9.433593,-9.433593 c 2.50628,-2.50628 2.50628,-6.567939 0,-9.074219 l -2.376953,-2.376953 c -2.50628,-2.50628 -6.567939,-2.50628 -9.074219,0 l -9.417968,9.417969 A 30.925301,30.925301 0 0 0 68.095703,30.160156 V 16.894531 c 0,-3.544415 -2.873554,-6.417968 -6.417969,-6.417969 z m 1.505859,38.681641 A 10.843214,10.843214 0 0 1 70.839844,59.769531 L 70.84375,60 A 10.843214,10.843214 0 0 1 60.056641,70.84375 10.843214,10.843214 0 0 1 49.158203,60.115234 10.843214,10.843214 0 0 1 59.828125,49.158203 Z" />
  </g>
</svg>
