<?xml version="1.0" encoding="UTF-8" standalone="no"?>
<!-- Created with Inkscape (http://www.inkscape.org/) -->

<svg
   width="120"
   height="120"
   viewBox="0 0 120 120"
   version="1.1"
   id="svg1"
   xml:space="preserve"
   xmlns="http://www.w3.org/2000/svg"
   xmlns:svg="http://www.w3.org/2000/svg"><defs
     id="defs1" /><g
     id="layer7"
     transform="translate(-8.9219331,9.5167286)"><path
       id="rect27"
       style="fill:none;stroke:#ff8e00;stroke-width:10;stroke-linecap:round;stroke-linejoin:round;stroke-miterlimit:7.3;stroke-opacity:1"
       d="M 113.3829,94.944244 H 24.460971 V 6.0222991" /></g><g
     id="layer6"><path
       style="display:inline;fill:#888888;fill-opacity:1;stroke-width:8.19245;stroke-linecap:round;stroke-linejoin:round;stroke-miterlimit:7.3"
       d="M 65.530331,67.70073 90.42784,30.815037 c 0,0 0.0066,-0.08854 0.0083,-0.10637 2.494911,-4.057047 3.38541,-8.026582 -0.30584,-11.036372 -0.112778,-0.10932 -0.22885,-0.21333 -0.352822,-0.30421 -0.01154,-0.008 -0.0246,-0.0153 -0.03616,-0.0238 l -0.007,-0.005 c -0.02574,-0.0183 -0.05421,-0.0333 -0.08059,-0.0508 -0.08085,-0.0538 -0.162865,-0.1058 -0.249239,-0.15323 -3.984508,-2.63473 -7.521657,-0.5948 -10.646448,3.0182 -0.01469,0.006 -0.0929,0.039 -0.0929,0.039 L 50.980417,57.03476 Z"
       id="path12" /><path
       id="path7"
       style="display:inline;fill:#888888;fill-opacity:1;stroke-width:8.19245;stroke-linecap:round;stroke-linejoin:round;stroke-miterlimit:7.3"
       d="m 47.650407,61.225593 -4.429525,5.575173 c -0.667432,0.910135 -0.938194,1.985656 -0.853632,3.028515 4.631343,0.320546 9.00684,2.601267 11.689214,6.981708 0.605374,0.988602 1.079942,2.002113 1.442966,3.03051 1.178347,-0.154622 2.294202,-0.767564 3.05228,-1.802026 l 3.983693,-5.903715 z" /><path
       id="path22"
       style="display:inline;fill:#888888;fill-opacity:1;stroke-width:0.740768;stroke-linecap:round;stroke-linejoin:round;stroke-miterlimit:7.3"
       d="m 38.822708,72.48968 c -0.326763,0.05141 -0.65195,0.115338 -0.972451,0.191272 -3.289721,0.779403 -5.279987,3.264792 -6.789244,5.50978 -1.509258,2.244989 -2.748402,4.44414 -4.055901,5.665842 -0.930476,0.869419 -2.411465,1.035095 -3.956023,0.822713 -1.544558,-0.212382 -2.758238,-0.741119 -2.758238,-0.741119 -2.176242,-0.964906 -4.342001,1.369763 -3.216683,3.467554 0,0 3.25678,6.522558 9.410907,10.729609 2.051375,1.40235 4.425212,2.548039 7.106812,3.108719 7.233015,1.51233 13.328233,-0.87624 16.550054,-5.23653 C 53.727454,91.155028 55.36039,83.728186 51.923573,78.115707 49.216609,73.69511 43.724155,71.718465 38.822708,72.48968 Z m 8.494813,7.507453 c 3.863858,4.592551 3.127165,11.464626 0.783439,13.373112 -4.070862,3.314886 -9.523983,2.974855 -12.668088,1.477808 0,0 1.236159,0.04979 2.745185,-0.390099 1.88392,-0.549171 3.020393,-2.265347 3.020393,-2.265347 0,0 -1.81299,1.303293 -5.208764,0.991083 -4.667851,-0.429166 -6.100375,-2.787286 -6.100375,-2.787286 0,0 1.180165,0.65936 3.044373,0.182824 1.849775,-0.472846 2.840336,-2.572944 2.840336,-2.572944 0,0 -2.712924,0.561916 -4.778613,0.340336 -4.08397,-0.438075 -4.967279,-1.694881 -4.967279,-1.694881 0,0 2.377432,0.07916 3.989792,-1.118628 1.612359,-1.197783 3.333039,-3.331308 4.515754,-5.672731 2.358709,-4.66954 8.116232,-5.411135 12.783847,0.136753 z" /></g></svg>
