<?xml version="1.0" encoding="UTF-8" standalone="no"?>
<!-- Created with Inkscape (http://www.inkscape.org/) -->

<svg
   width="120"
   height="120"
   viewBox="0 0 120 120"
   version="1.1"
   id="svg1"
   xmlns="http://www.w3.org/2000/svg"
   xmlns:svg="http://www.w3.org/2000/svg">
  <defs
     id="defs1" />
  <g
     id="layer1">
    <path
       style="font-weight:bold;font-size:74.6667px;font-family:Arial;-inkscape-font-specification:'Arial Bold';text-align:center;letter-spacing:0px;text-anchor:middle;stroke-width:7;stroke-linecap:round;stroke-linejoin:round;stroke-miterlimit:7.3"
       d="M 43.971871,79.935042 13.034766,66.482789 A 5.9008171,5.9008171 56.750325 0 1 9.4869551,61.071412 v -1.085527 a 5.8900542,5.8900542 123.29766 0 1 3.5503889,-5.405433 l 30.93296,-13.388893 a 1.5439866,1.5439866 33.297655 0 1 2.157294,1.416951 v 5.68922 a 3.4153396,3.4153396 124.5388 0 1 -2.195711,3.190149 l -21.165882,8.09195 a 0.91542656,0.91542656 90.354851 0 0 -0.01057,1.706021 l 21.187014,8.402268 a 3.4610422,3.4610422 55.816053 0 1 2.185145,3.217282 v 5.616303 a 1.5411704,1.5411704 146.75032 0 1 -2.155727,1.413339 z m 6.093746,5.651288 12.139595,-50.698696 a 2.9800201,2.9800201 141.73286 0 1 2.898098,-2.286082 h 2.991302 a 1.8495363,1.8495363 51.804302 0 1 1.797612,2.28471 l -12.274029,50.70144 a 2.9876743,2.9876743 141.8043 0 1 -2.903798,2.28471 H 51.868929 A 1.8542869,1.8542869 51.732856 0 1 50.065617,85.58633 Z m 23.770329,-7.028168 v -5.616304 a 3.4500696,3.4500696 124.26856 0 1 2.187694,-3.210824 l 21.218375,-8.342267 a 0.91918208,0.91918208 89.893809 0 0 -0.0032,-1.712123 L 76.026814,51.427523 a 3.4363654,3.4363654 55.625252 0 1 -2.190868,-3.202709 v -5.543387 a 1.5445965,1.5445965 146.69196 0 1 2.157632,-1.417733 L 106.9621,54.654656 a 5.8877286,5.8877286 56.691962 0 1 3.55095,5.404146 v 1.01261 a 5.9038577,5.9038577 123.23614 0 1 -3.54708,5.413052 L 75.99123,79.970483 a 1.5403767,1.5403767 33.236143 0 1 -2.155284,-1.412321 z"
       id="text40"
       aria-label="&lt;/&gt;"
       transform="translate(0,-0.236982)" />
  </g>
</svg>
