<svg width="120" height="120" xmlns="http://www.w3.org/2000/svg" xmlns:xlink="http://www.w3.org/1999/xlink" xml:space="preserve" overflow="hidden"><g transform="translate(-580 -300)"><path d="M605.18 356C603.041 356 601.307 357.733 601.307 359.872 601.307 359.872 601.307 359.873 601.307 359.873L601.307 385.305C601.307 392.699 607.301 398.693 614.695 398.693L665.305 398.693C672.699 398.693 678.693 392.699 678.693 385.305L678.693 359.873C678.694 357.734 676.96 356 674.821 356 674.821 356 674.821 356 674.82 356L643.5 356 643.5 377.959 661.316 360.143C662.683 358.775 664.901 358.775 666.268 360.143 667.634 361.509 667.634 363.725 666.268 365.092L642.475 388.885C641.108 390.251 638.892 390.251 637.525 388.885L613.732 365.092C612.366 363.725 612.366 361.509 613.732 360.143 614.389 359.486 615.28 359.117 616.209 359.117 617.137 359.117 618.027 359.486 618.684 360.143L636.5 377.959 636.5 356Z"/><path d="M640.182 318.852C639.925 318.839 639.662 318.854 639.396 318.9 638.998 318.97 638.615 319.108 638.264 319.309 637.188 319.923 636.517 321.06 636.5 322.299L636.5 356 643.5 356 643.5 322.299C643.473 320.414 641.977 318.941 640.182 318.852Z"/></g></svg>