<?xml version="1.0" encoding="UTF-8" standalone="no"?>
<!-- Created with Inkscape (http://www.inkscape.org/) -->

<svg
   width="120"
   height="120"
   viewBox="0 0 120 120"
   version="1.1"
   id="svg1"
   xmlns="http://www.w3.org/2000/svg"
   xmlns:svg="http://www.w3.org/2000/svg">
  <defs
     id="defs1" />
  <g
     id="layer1">
    <path
       id="rect29"
       style="fill:#ff0000;fill-opacity:1;stroke:none;stroke-width:2.51547;stroke-linecap:round;stroke-linejoin:round;stroke-miterlimit:7.3;stroke-dasharray:none;stroke-dashoffset:0;stroke-opacity:1"
       d="m 35.262678,34.263837 v 9.473344 a 4.3141536,4.3141536 0 0 0 4.314402,4.314403 h 3.849807 a 4.3141536,4.3141536 0 0 0 4.314402,-4.314403 v -9.473344 z" />
    <path
       id="rect20"
       style="stroke-width:4.875;stroke-linecap:round;stroke-linejoin:round;stroke-miterlimit:7.3"
       d="m 22.146484,24.768538 0,64.724132 a 8.3608457,8.3608457 45 0 0 8.360846,8.360846 H 89.49267 A 8.3608457,8.3608457 135 0 0 97.853516,89.49267 V 46.340831 a 8.5217535,8.5217535 58.283117 0 0 -4.710552,-7.62201 L 62.345212,23.319151 A 11.106685,11.106685 13.283117 0 0 57.377946,22.146484 H 56.247054 A 2.6220538,2.6220538 135 0 0 53.625,24.768538 v 21.546397 a 8.3608457,8.3608457 135 0 1 -8.360846,8.360846 H 37.802252 A 8.3608457,8.3608457 45 0 1 29.441406,46.314935 V 24.768538 a 2.6220538,2.6220538 45 0 0 -2.622054,-2.622054 h -2.050814 a 2.6220538,2.6220538 135 0 0 -2.622054,2.622054 z m 16.036628,37.057634 h 43.633776 a 8.3608457,8.3608457 45 0 1 8.360846,8.360846 v 11.66698 a 8.3608457,8.3608457 135 0 1 -8.360846,8.360846 H 38.183112 a 8.3608457,8.3608457 45 0 1 -8.360846,-8.360846 v -11.66698 a 8.3608457,8.3608457 135 0 1 8.360846,-8.360846 z" />
    <path
       id="path23"
       style="fill:#ff0000;stroke-width:2.80365;stroke-linecap:round;stroke-linejoin:round;stroke-miterlimit:7.3"
       d="m 36.929262,67.179007 h 46.141477 a 2.6451959,2.6451959 45 0 1 2.645196,2.645196 v 0.645493 a 2.6451959,2.6451959 135 0 1 -2.645196,2.645196 H 36.929262 a 2.6451959,2.6451959 45 0 1 -2.645196,-2.645196 v -0.645493 a 2.6451959,2.6451959 135 0 1 2.645196,-2.645196 z"
       transform="translate(0,0.94631391)" />
    <path
       id="path26"
       style="fill:#ff0000;stroke-width:2.80365;stroke-linecap:round;stroke-linejoin:round;stroke-miterlimit:7.3"
       d="m 36.929262,67.179007 h 46.141477 a 2.6451959,2.6451959 45 0 1 2.645196,2.645196 v 0.645493 a 2.6451959,2.6451959 135 0 1 -2.645196,2.645196 H 36.929262 a 2.6451959,2.6451959 45 0 1 -2.645196,-2.645196 v -0.645493 a 2.6451959,2.6451959 135 0 1 2.645196,-2.645196 z"
       transform="translate(0,10.935183)" />
  </g>
</svg>
