<svg width="120" height="120" xmlns="http://www.w3.org/2000/svg" xmlns:xlink="http://www.w3.org/1999/xlink" xml:space="preserve" overflow="hidden"><g transform="translate(-580 -300)"><path d="M638.322 310.477C634.778 310.477 631.904 313.35 631.904 316.895L631.904 327.547C631.904 329.161 630.934 330.618 629.444 331.239L627.138 332.2C625.65 332.821 623.933 332.482 622.793 331.341L615.244 323.793C612.738 321.287 608.676 321.287 606.17 323.793L603.793 326.17C601.287 328.676 601.287 332.738 603.793 335.244L611.33 342.781C612.47 343.921 612.806 345.637 612.182 347.124L611.205 349.447C610.579 350.936 609.121 351.904 607.506 351.904L596.895 351.904C593.35 351.904 590.477 354.778 590.477 358.322L590.477 361.678C590.477 365.222 593.35 368.096 596.895 368.096L607.541 368.096C609.156 368.096 610.612 369.066 611.235 370.556L612.199 372.862C612.821 374.351 612.482 376.067 611.341 377.207L603.793 384.756C601.287 387.262 601.287 391.324 603.793 393.83L606.17 396.207C608.676 398.713 612.738 398.713 615.244 396.207L622.785 388.666C623.925 387.526 625.641 387.189 627.128 387.813L629.446 388.785C630.935 389.41 631.904 390.867 631.904 392.482L631.904 403.105C631.904 406.65 634.778 409.523 638.322 409.523L641.678 409.523C645.222 409.523 648.096 406.65 648.096 403.105L648.096 392.467C648.096 390.852 649.065 389.395 650.555 388.771L652.865 387.805C654.353 387.182 656.069 387.52 657.209 388.661L664.756 396.207C667.262 398.713 671.324 398.713 673.83 396.207L676.207 393.83C678.713 391.324 678.713 387.262 676.207 384.756L668.664 377.213C667.524 376.073 667.186 374.357 667.809 372.869L668.779 370.555C669.403 369.065 670.86 368.096 672.475 368.096L683.105 368.096C686.65 368.096 689.523 365.222 689.523 361.678L689.523 358.322C689.523 354.778 686.65 351.904 683.105 351.904L672.447 351.904C670.833 351.904 669.377 350.933 668.757 349.443L667.798 347.139C667.178 345.65 667.518 343.933 668.659 342.793L676.207 335.244C678.713 332.738 678.713 328.676 676.207 326.17L673.83 323.793C671.324 321.287 667.262 321.287 664.756 323.793L657.223 331.326C656.083 332.466 654.367 332.802 652.881 332.176L650.553 331.195C649.064 330.568 648.096 329.11 648.096 327.494L648.096 316.895C648.096 313.35 645.222 310.477 641.678 310.477ZM644.258 339.611C653.75 341.593 660.62 349.862 660.828 359.557L660.832 360C660.828 362.21 660.473 364.406 659.779 366.504L650.467 361.127C646.625 358.908 644.258 354.808 644.258 350.371ZM635.742 339.674 635.742 350.371C635.742 354.808 633.375 358.908 629.533 361.127L620.318 366.447C619.621 364.442 619.233 362.343 619.17 360.221 619.096 350.299 626.03 341.702 635.742 339.674ZM640 366.838C642.18 366.838 644.321 367.412 646.209 368.502L655.523 373.879C651.6 378.271 646.001 380.797 640.111 380.832 634.163 380.829 628.5 378.284 624.549 373.838L633.791 368.502C635.679 367.412 637.82 366.838 640 366.838Z"/></g></svg>