<?xml version="1.0" encoding="UTF-8" standalone="no"?>
<!-- Created with Inkscape (http://www.inkscape.org/) -->

<svg
   width="120"
   height="120"
   viewBox="0 0 120 120"
   version="1.1"
   id="svg1"
   xmlns="http://www.w3.org/2000/svg"
   xmlns:svg="http://www.w3.org/2000/svg">
  <defs
     id="defs1" />
  <g
     id="layer1">
    <path
       id="rect43"
       style="fill:#000000;fill-opacity:1;stroke:none;stroke-width:7.451;stroke-linecap:round;stroke-linejoin:round;stroke-miterlimit:7.3;stroke-dasharray:none"
       d="m 60.568359,24.380859 c -16.889882,0.0087 -33.969674,0.350461 -51.224609,0.998047 -0.6439114,0.02417 -1.0682072,0.55617 -0.9492188,1.189453 l 1.5683594,8.351563 a 4.7873145,4.7873145 0 0 1 -0.1210937,2.263672 l -1.328125,4.410156 a 2.6328512,2.6328512 0 0 0 0.265625,2.117188 l 2.7968751,4.644531 a 3.064209,3.064209 0 0 1 0.386719,2.146484 l -1.56836,8.351563 a 12.527794,12.527794 0 0 0 -0.216797,2.3125 v 6.3125 A 10.218896,10.218896 0 0 1 9.9160156,69.78125 l -1.4746094,6.371094 a 3.4021,3.4021 0 0 0 0.2265626,2.195312 L 11.6875,84.875 a 2.5214215,2.5214215 0 0 1 0,2.117188 l -3.0195312,6.527343 c -0.2705985,0.584793 0.031697,1.069599 0.6757812,1.082031 33.553625,0.647652 67.379943,0.475465 101.31055,-0.0078 0.6443,-0.0092 1.16797,-0.539229 1.16797,-1.183594 v -6.310547 a 10.218894,10.218894 0 0 0 -0.26368,-2.302734 l -1.47461,-6.371094 a 5.0428422,5.0428422 0 0 1 0,-2.273437 l 2,-8.644532 1.47461,-6.371093 a 3.4020995,3.4020995 0 0 0 -0.22656,-2.195313 l -3.01953,-6.527344 a 3.4020995,3.4020995 0 0 1 -0.22852,-2.195312 l 1.47461,-6.371094 a 5.0428422,5.0428422 0 0 0 0,-2.273437 l -1.47461,-6.371094 a 5.0428422,5.0428422 0 0 1 0,-2.273437 l 1.47461,-6.371094 c 0.14525,-0.627782 -0.25852,-1.159078 -0.90234,-1.185547 -16.497316,-0.678258 -33.198008,-1.000944 -50.087891,-0.9922 z m -11.865234,21.25586 48.59375,2 c 4.601135,0.06507 -9.398867,4.93493 -14,5 l -48.59375,-2 c -2.66397,-0.03822 -16.310338,-0.920175 -14.990234,-3.234375 0.613967,-1.076328 27.751234,-1.747845 28.990234,-1.765625 z m 29.826172,31.546875 c 0.981061,0.01211 22.468933,0.469758 22.955083,1.203125 1.04528,1.576802 -9.75977,2.177081 -11.869146,2.203125 l -38.478515,1.363281 c -3.643255,-0.04434 -14.729192,-3.361913 -11.085938,-3.40625 z" />
  </g>
</svg>
