<svg width="49" height="49" xmlns="http://www.w3.org/2000/svg" xmlns:xlink="http://www.w3.org/1999/xlink" xml:space="preserve" overflow="hidden"><g transform="translate(-434 89)"><path d="M434.995-64.5C434.995-77.4812 445.519-88.0046 458.5-88.0046 471.481-88.0046 482.005-77.4812 482.005-64.5 482.005-51.5188 471.481-40.9954 458.5-40.9954 445.519-40.9954 434.995-51.5188 434.995-64.5Z" stroke="#FFFFFF" stroke-width="1.99012" stroke-miterlimit="10" fill="none"/><path d="M460.019-69.8087C459.026-69.8087 458.172-69.4677 457.456-68.7857 456.74-68.1037 456.382-66.965 456.382-65.3696 456.382-64.0923 456.726-63.0861 457.413-62.3511 458.1-61.6161 458.961-61.2486 459.997-61.2486 461.053-61.2486 461.922-61.6197 462.604-62.362 463.286-63.1042 463.627-64.1574 463.627-65.5214 463.627-66.3842 463.481-67.1373 463.189-67.7807 462.898-68.4242 462.471-68.9231 461.91-69.2773 461.348-69.6316 460.718-69.8087 460.019-69.8087ZM466.824-70.8281 468.263-70.8281 473.83-62.5066 473.83-70.8281 475.174-70.8281 475.174-60.2291 473.736-60.2291 468.169-68.558 468.169-60.2291 466.824-60.2291ZM441.165-70.8281 442.568-70.8281 442.568-60.2291 441.165-60.2291ZM449.226-71.0089C450.287-71.0089 451.178-70.739 451.901-70.1991 452.624-69.6593 453.128-68.9002 453.412-67.9217L452.032-67.5964C451.786-68.3676 451.429-68.9291 450.962-69.2809 450.494-69.6328 449.906-69.8087 449.197-69.8087 448.383-69.8087 447.702-69.6135 447.155-69.2231 446.608-68.8327 446.224-68.3085 446.002-67.6506 445.78-66.9927 445.669-66.3143 445.669-65.6154 445.669-64.7141 445.801-63.9272 446.063-63.2548 446.326-62.5825 446.734-62.08 447.289-61.7474 447.843-61.4148 448.443-61.2486 449.089-61.2486 449.875-61.2486 450.54-61.4751 451.084-61.9282 451.629-62.3812 451.998-63.0536 452.191-63.9453L453.593-63.591C453.299-62.4391 452.77-61.5606 452.006-60.9557 451.242-60.3508 450.308-60.0484 449.205-60.0484 448.062-60.0484 447.133-60.281 446.418-60.7461 445.702-61.2112 445.157-61.8848 444.784-62.7668 444.41-63.6489 444.223-64.596 444.223-65.6082 444.223-66.7119 444.434-67.6747 444.856-68.4965 445.278-69.3183 445.878-69.9425 446.656-70.369 447.435-70.7956 448.291-71.0089 449.226-71.0089ZM460.012-71.0161C460.99-71.0161 461.872-70.7823 462.658-70.3148 463.444-69.8473 464.043-69.1954 464.455-68.3591 464.867-67.5229 465.073-66.5746 465.073-65.5142 465.073-64.4393 464.856-63.4778 464.422-62.6295 463.988-61.7812 463.374-61.1389 462.578-60.7027 461.783-60.2665 460.925-60.0484 460.005-60.0484 459.007-60.0484 458.115-60.2894 457.33-60.7714 456.544-61.2534 455.949-61.9113 455.544-62.7451 455.139-63.579 454.936-64.461 454.936-65.3913 454.936-67.1505 455.409-68.5278 456.354-69.5231 457.298-70.5184 458.518-71.0161 460.012-71.0161Z" stroke="#FFFFFF" stroke-width="1.50482" stroke-linejoin="round" stroke-miterlimit="10" fill="#FFFFFF" fill-rule="evenodd"/><text fill="#000000" fill-opacity="0" font-family="Arial,Arial_MSFontService,sans-serif" font-size="10.9677" x="441.165" y="-61.4194">ICON</text><path d="M461.731-53.2845 461.731-51.7827 462.817-51.7827C463.176-51.7827 463.431-51.8496 463.582-51.9834 463.733-52.1171 463.808-52.3053 463.808-52.548 463.808-52.7237 463.764-52.8742 463.675-52.9994 463.586-53.1245 463.469-53.2071 463.324-53.2473 463.23-53.2721 463.058-53.2845 462.805-53.2845ZM461.175-53.7803 462.759-53.7803C463.038-53.7803 463.251-53.767 463.399-53.7402 463.605-53.7058 463.778-53.6404 463.917-53.5439 464.057-53.4474 464.169-53.3122 464.254-53.1384 464.339-52.9645 464.382-52.7734 464.382-52.5652 464.382-52.2079 464.268-51.9055 464.041-51.6581 463.813-51.4106 463.402-51.2869 462.808-51.2869L461.731-51.2869 461.731-49.5788 461.175-49.5788ZM456.315-53.7803 457.152-53.7803 458.146-50.8055C458.238-50.5284 458.305-50.3211 458.347-50.1835 458.395-50.3364 458.469-50.5609 458.571-50.857L459.577-53.7803 460.325-53.7803 460.325-49.5788 459.789-49.5788 459.789-53.0954 458.568-49.5788 458.066-49.5788 456.851-53.1555 456.851-49.5788 456.315-49.5788ZM452.495-53.7803 455.826-53.7803 455.826-53.2845 454.436-53.2845 454.436-49.5788 453.88-49.5788 453.88-53.2845 452.495-53.2845Z" stroke="#FFFFFF" stroke-width="0.376204" stroke-linejoin="round" stroke-miterlimit="10" fill="#FFFFFF" fill-rule="evenodd"/><text fill="#000000" fill-opacity="0" font-family="Arial,Arial_MSFontService,sans-serif" font-size="4.20152" x="452.495" y="-50.104">TMP</text></g></svg>