<?xml version="1.0" encoding="UTF-8" standalone="no"?>
<!-- Created with Inkscape (http://www.inkscape.org/) -->

<svg
   width="120"
   height="120"
   viewBox="0 0 120 120"
   version="1.1"
   id="svg1"
   inkscape:export-filename="icon.png"
   inkscape:export-xdpi="96"
   inkscape:export-ydpi="96"
   xmlns:inkscape="http://www.inkscape.org/namespaces/inkscape"
   xmlns:sodipodi="http://sodipodi.sourceforge.net/DTD/sodipodi-0.dtd"
   xmlns="http://www.w3.org/2000/svg"
   xmlns:svg="http://www.w3.org/2000/svg">
  <sodipodi:namedview
     id="namedview1"
     pagecolor="#ffffff"
     bordercolor="#000000"
     borderopacity="0.25"
     inkscape:showpageshadow="2"
     inkscape:pageopacity="0.0"
     inkscape:pagecheckerboard="0"
     inkscape:deskcolor="#d1d1d1"
     inkscape:document-units="px">
    <inkscape:page
       x="0"
       y="0"
       width="120"
       height="120"
       id="page2"
       margin="0"
       bleed="0" />
  </sodipodi:namedview>
  <defs
     id="defs1">
    <inkscape:path-effect
       effect="fillet_chamfer"
       id="path-effect12"
       is_visible="true"
       lpeversion="1"
       nodesatellites_param="F,0,0,1,0,0,0,1 @ F,0,0,1,0,0,0,1 @ F,0,0,1,0,0,0,1 @ F,0,0,1,0,0,0,1 @ F,0,0,1,0,0,0,1 @ F,0,0,1,0,0,0,1 @ F,0,0,1,0,0,0,1 @ F,0,0,1,0,0,0,1 @ F,0,0,1,0,0,0,1 @ F,0,0,1,0,0,0,1 | F,0,0,1,0,0,0,1 @ F,0,0,1,0,0,0,1 @ F,0,0,1,0,0,0,1 @ F,0,0,1,0,0,0,1 @ F,0,0,1,0,0,0,1 @ F,0,0,1,0,0,0,1 @ F,0,0,1,0,0,0,1 @ F,0,0,1,0,0,0,1 @ F,0,0,1,0,0,0,1 @ F,0,0,1,0,0,0,1 @ F,0,0,1,0,1.1822127,0,1 @ F,0,0,1,0,2.1956923,0,1 @ F,0,0,1,0,2.2102711,0,1 @ F,0,0,1,0,3.29418,0,1 @ F,0,0,1,0,0,0,1"
       radius="0"
       unit="px"
       method="auto"
       mode="F"
       chamfer_steps="1"
       flexible="false"
       use_knot_distance="true"
       apply_no_radius="true"
       apply_with_radius="true"
       only_selected="false"
       hide_knots="false" />
  </defs>
  <g
     inkscape:label="Layer 1"
     inkscape:groupmode="layer"
     id="layer1"
     style="display:inline">
    <path
       style="fill:#f7cd04;fill-opacity:1;stroke:none;stroke-width:12.959;stroke-linecap:round;stroke-linejoin:round;stroke-miterlimit:7.3;stroke-dasharray:none"
       d="m 77.861109,30.242799 c -0.02306,0.0136 -0.116614,0.0022 -0.289444,0.136082 0.196521,-0.086 0.33376,-0.162193 0.289444,-0.136082 z"
       id="path11" />
    <path
       style="fill:#f79e04;fill-opacity:1;stroke:none;stroke-width:12.959;stroke-linecap:round;stroke-linejoin:round;stroke-miterlimit:7.3;stroke-dasharray:none"
       d="m 70.717884,9.9579393 v 8.9943737 c 0.78719,0.0021 1.569921,0.01243 2.343635,0.0324 4.967855,-0.164127 11.633911,1.102687 18.081626,3.147166 3.280099,1.040073 6.453005,2.131823 9.214695,3.579173 2.7617,1.44735 5.11171,3.251354 6.74362,5.715444 0.85681,1.29429 0.85768,2.975207 0.002,4.270383 -1.89008,2.85958 -4.83234,4.184294 -7.657322,5.039355 -2.645322,0.800681 -5.400539,1.236067 -8.037479,1.717225 2.982631,4.082766 4.793293,9.080592 4.916234,14.508933 l 0.0043,0.544326 c -3.65e-4,14.091634 -11.383985,25.536061 -25.475417,25.611498 -0.0028,-2.64e-4 -0.0057,-5.26e-4 -0.0086,-7.86e-4 -0.0029,-2.59e-4 -0.0057,-5.14e-4 -0.0086,-7.62e-4 -0.0029,-2.46e-4 -0.0057,-5.13e-4 -0.0086,-7.77e-4 -0.0029,-2.64e-4 -0.0057,-5.27e-4 -0.0086,-7.71e-4 -0.0029,-2.44e-4 -0.0057,-5.12e-4 -0.0086,-7.77e-4 -0.0029,-2.66e-4 -0.0057,-5.31e-4 -0.0086,-7.72e-4 -0.0029,-2.4e-4 -0.0057,-5.08e-4 -0.0086,-7.9e-4 -0.0029,-2.82e-4 -0.0057,-5.77e-4 -0.0086,-8.69e-4 -0.0028,-2.91e-4 -0.0057,-5.61e-4 -0.0086,-8.3e-4 -0.0029,-2.7e-4 -0.0057,-5.4e-4 -0.0086,-8.29e-4 -0.0028,-2.87e-4 -0.0057,-5.6e-4 -0.0086,-8.31e-4 -0.0029,-2.71e-4 -0.0057,-5.44e-4 -0.0086,-8.27e-4 -0.0028,-2.84e-4 -0.0057,-5.58e-4 -0.0086,-8.31e-4 -0.0029,-2.74e-4 -0.0057,-5.48e-4 -0.0086,-8.28e-4 -0.0028,-2.79e-4 -0.0057,-5.55e-4 -0.0086,-8.33e-4 -0.0029,-2.74e-4 -0.0057,-5.5e-4 -0.0086,-8.26e-4 0,0 -0.453002,0.936053 -0.28779,1.37378 0.326402,0.864791 2.280351,0.739194 2.220095,1.661569 -0.04817,0.737284 -1.978616,0.348587 -1.932305,1.08599 0.08069,1.284741 3.58283,0.168749 3.57682,1.456006 -0.007,1.503549 -4.262017,0.159567 -4.193513,1.66157 0.04296,0.941827 2.514436,-0.123361 2.71345,0.798201 0.210066,0.972734 -2.422444,0.967348 -2.261208,1.949359 0.155785,0.94882 2.629286,0.12543 2.672337,1.08599 0.0421,0.939365 -2.444804,0.353367 -2.507886,1.291555 -0.0729,1.084218 2.830205,0.791998 2.672337,1.867135 -0.136252,0.927928 -2.645479,-0.05707 -2.672337,0.880425 -0.02827,0.986564 2.672132,0.102461 2.754562,1.085989 0.08956,1.068554 -2.974199,0.612007 -2.754562,1.661574 0.376522,1.79925 5.23847,-1.107871 5.468012,0.71597 0.269102,2.13817 -5.262589,0.37757 -6.002479,2.4016 -0.130145,0.35602 0.534467,1.00377 0.534467,1.00377 0.0053,3.4e-4 0.01051,7.1e-4 0.01578,0.001 0.0053,3.5e-4 0.01051,7.1e-4 0.0158,0.001 0.0053,3.3e-4 0.0105,6.8e-4 0.01578,10e-4 0.0053,3.5e-4 0.0105,7.1e-4 0.01581,0.001 0.0053,3.3e-4 0.0105,6.8e-4 0.01578,0.001 0.0053,3.7e-4 0.0105,7.6e-4 0.01581,10e-4 0.0052,3.8e-4 0.01051,7.4e-4 0.01578,0.001 0.0053,3.5e-4 0.0105,7.2e-4 0.0158,0.001 0.0052,3.9e-4 0.0105,7.4e-4 0.01578,10e-4 0.0053,3.6e-4 0.0105,7.2e-4 0.01582,0.001 0.0052,3.9e-4 0.0105,7.4e-4 0.01578,0.001 0.0053,3.6e-4 0.0105,7.2e-4 0.01581,10e-4 0.0052,3.9e-4 0.0105,7.4e-4 0.01579,0.001 0.0053,3.5e-4 0.01051,6.9e-4 0.01581,0.001 0.0053,3.3e-4 0.0105,6.8e-4 0.01579,10e-4 0.0053,3.5e-4 0.0105,7.1e-4 0.01581,0.001 26.18801,-0.13915 47.343894,-21.40798 47.343694,-47.596244 l -0.011,-1.010894 C 117.72785,30.627633 96.592481,9.9575766 70.717884,9.9579393 Z"
       id="path1" />
  </g>
  <g
     inkscape:groupmode="layer"
     id="layer2"
     inkscape:label="Layer 2"
     style="display:inline"
     transform="matrix(0.64152407,0.37038409,-0.37038409,0.64152407,16.074975,17.745538)">
    <path
       id="path3"
       style="fill:#f79e04;fill-opacity:1;stroke-width:10;stroke-linecap:round;stroke-linejoin:round;stroke-miterlimit:7.3"
       d="m 94.215688,-30.105436 c -9.003652,0.108083 -17.43753,1.888944 -22.856868,11.906981 -2.016309,3.727291 0.289152,9.4730381 1.784491,13.5100461 1.010311,-0.041923 2.010421,0.1956371 2.89501,0.6855218 l 10.550123,6.0905945 c 0.872464,0.5079893 1.590889,1.2456668 2.072384,2.1330259 4.335,-0.7554902 11.538822,-1.9167665 13.433082,-5.8137486 5.828,-11.9897117 28.23642,-7.0752834 33.74084,-15.4031387 -4.85734,-7.334266 -27.81518,-13.506006 -37.732682,-13.072369 -1.302419,-0.03362 -2.600144,-0.05235 -3.88638,-0.03691 z m -0.806806,4.674729 c 0.838553,-0.01007 1.684691,0.0018 2.533793,0.02373 1.932014,-0.08448 9.826865,0.582085 12.735405,1.171976 0,0 1.55793,0.303153 1.46521,1.012028 -0.0927,0.708875 -8.46329,0.948829 -8.89054,1.89081 -0.32,0.705502 6.07967,0.366148 6.13682,1.214777 0.0572,0.848629 -4.65234,0.732069 -4.64441,1.42061 0.008,0.688541 4.72863,0.387207 4.1975,1.334129 -0.53113,0.946923 -7.221347,2.581448 -6.66011,3.49616 0.56124,0.914713 7.02272,-1.101815 7.99424,-0.08701 0.14508,0.15155 0.24948,0.289942 0.32211,0.415725 0.28828,0.499275 -0.72408,1.125166 -1.35061,1.30822 -2.98356,0.871706 -5.80284,2.7279538 -7.615208,5.0879309 -0.737337,0.9601231 -1.685006,2.7572444 -2.712622,3.3693332 -1.300653,0.7747199 -3.081911,1.2701388 -4.482877,1.5137195 -1.193759,0.2075544 -3.045983,-0.3826339 -4.100805,-0.9970089 l -8.009246,-4.6649389 c -1.572103,-0.9156622 -3.685702,-2.9163568 -4.092895,-4.6700008 -0.363089,-1.563702 -0.489901,-3.393567 0.168448,-4.610578 3.5331,-6.531187 11.13593,-8.159147 17.005797,-8.229612 z"
       sodipodi:nodetypes="ssccccsccssccssssssscscccsc"
       inkscape:path-effect="#path-effect12"
       inkscape:original-d="m 94.215688,-30.105436 c -9.003652,0.108083 -17.43753,1.888944 -22.856868,11.906981 -2.016309,3.727291 0.289152,9.4730381 1.784491,13.5100461 1.010311,-0.041923 2.010421,0.1956371 2.89501,0.6855218 l 10.550123,6.0905945 c 0.872464,0.5079893 1.590889,1.2456668 2.072384,2.1330259 4.335,-0.7554902 11.538822,-1.9167665 13.433082,-5.8137486 5.828,-11.9897117 28.23642,-7.0752834 33.74084,-15.4031387 -4.85734,-7.334266 -27.81518,-13.506006 -37.732682,-13.072369 -1.302419,-0.03362 -2.600144,-0.05235 -3.88638,-0.03691 z m -0.806806,4.674729 c 0.838553,-0.01007 1.684691,0.0018 2.533793,0.02373 1.932014,-0.08448 9.826865,0.582085 12.735405,1.171976 0,0 1.55793,0.303153 1.46521,1.012028 -0.0927,0.708875 -8.46329,0.948829 -8.89054,1.89081 -0.32,0.705502 6.07967,0.366148 6.13682,1.214777 0.0572,0.848629 -4.65234,0.732069 -4.64441,1.42061 0.008,0.688541 4.72863,0.387207 4.1975,1.334129 -0.53113,0.946923 -7.221347,2.581448 -6.66011,3.49616 0.56124,0.914713 7.02272,-1.101815 7.99424,-0.08701 0.97151,1.014806 0.11865,1.439595 0.11865,1.439595 -4.14994,0.844534 -8.19191,3.6747481 -9.921391,7.2327318 -1.234947,2.5406103 -7.658545,3.4691861 -8.227347,3.1380172 L 77.480988,-9.5784693 c -0.576702,-0.3193774 -2.392416,-5.1926427 -1.077903,-7.6226257 3.5331,-6.531187 11.13593,-8.159147 17.005797,-8.229612 z"
       transform="matrix(0.95776895,-0.55296816,0.55296816,0.95776895,-7.2579389,50.595826)" />
    <path
       style="fill:#2f34bb;fill-opacity:1;stroke-width:11.0594;stroke-linecap:round;stroke-linejoin:round;stroke-miterlimit:7.3"
       d="m 57.914833,29.84324 2.332748,60.030354 c 0,0 0.06353,0.101626 0.07581,0.12247 0.521751,6.40833 2.720437,11.440846 9.141457,11.771626 0.21003,0.029 0.419416,0.0496 0.626925,0.0496 0.01929,-3e-5 0.03898,-0.003 0.05832,-0.003 h 0.01167 c 0.04259,-6.8e-4 0.0856,-0.007 0.128302,-0.009 0.130937,-0.006 0.261759,-0.0148 0.393652,-0.0321 6.440947,-0.31163 8.663848,-5.355685 9.182279,-11.783292 0.01095,-0.01861 0.06999,-0.116637 0.06999,-0.116637 l 2.332742,-60.03031 z"
       id="path12" />
    <path
       style="fill:#2f34bb;fill-opacity:1;stroke-width:11.0594;stroke-linecap:round;stroke-linejoin:round;stroke-miterlimit:7.3"
       d="M 63.355969,6.9269075 C 59.990417,6.926348 57.261103,9.6527452 57.261664,13.018296 l 0.373239,9.60509 h 24.91375 l 0.373239,-9.60509 C 82.922448,9.6526976 80.193139,6.9263483 76.827588,6.9269075 Z"
       id="path7" />
  </g>
  <g
     inkscape:groupmode="layer"
     id="layer3"
     inkscape:label="Layer 3">
    <path
       style="display:inline;fill:#cf2a2a;fill-opacity:1;stroke-width:6.96193;stroke-linecap:round;stroke-linejoin:round;stroke-miterlimit:7.3"
       d="M 1.6874047,67.560451 21.349646,101.61645 41.642019,89.900647 21.979776,55.844645 Z"
       id="path8" />
  </g>
</svg>
