<?xml version="1.0" encoding="UTF-8" standalone="no"?>
<!-- Created with Inkscape (http://www.inkscape.org/) -->

<svg
   width="120"
   height="120"
   viewBox="0 0 120 120"
   version="1.1"
   id="svg1"
   xml:space="preserve"
   xmlns="http://www.w3.org/2000/svg"
   xmlns:svg="http://www.w3.org/2000/svg"><defs
     id="defs1" /><g
     id="layer4"><path
       style="display:inline;fill:#f7a704;fill-opacity:1;stroke:none;stroke-width:9.99996;stroke-linecap:round;stroke-linejoin:round;stroke-miterlimit:7.3;stroke-dasharray:none;stroke-opacity:1"
       d="m 63.182293,12.161761 a 47.841427,47.841427 0 0 0 -0.761718,0.04102 v 11.800781 c 4.064786,-3.995963 10.502982,-5.878763 17.517578,-4.412109 3.088383,0.645737 5.770459,1.912361 8.05664,3.449219 6.858545,4.610573 10.152344,11.652343 10.152344,11.652343 a 5.0004998,5.0004998 0 0 1 -6.433594,6.935547 c 0,0 -0.927162,-0.389493 -2.085937,-0.548828 -1.158775,-0.159335 -1.762163,0.03542 -1.908203,0.171875 -0.866639,0.809772 -2.078397,2.84087 -3.6875,5.234375 -0.884308,1.315389 -2.018687,2.857658 -3.564453,4.148438 a 20.338762,20.338762 0 0 1 2.291015,9.580078 20.338762,20.338762 0 0 1 -20.445312,20.121094 20.338762,20.338762 0 0 1 -0.792969,-0.02344 c 0.09614,0.402412 0.174384,0.876778 0.08984,1.1875 -0.319881,1.175684 -2.234831,1.00385 -2.175782,2.257813 0.0472,1.002337 1.939922,0.47406 1.894532,1.476562 -0.07909,1.746596 -3.51176,0.230443 -3.50586,1.980469 0.0069,2.04407 4.176515,0.21584 4.109375,2.257812 -0.0421,1.280399 -2.463166,-0.166926 -2.658203,1.085938 -0.20587,1.322429 2.372858,1.31534 2.214844,2.650391 -0.152673,1.289918 -2.576951,0.170688 -2.619141,1.476562 -0.04125,1.277066 2.397165,0.480396 2.458985,1.755859 0.07144,1.473994 -2.773853,1.075475 -2.619141,2.53711 0.133531,1.26156 2.592821,-0.07718 2.619141,1.19726 0.02771,1.34124 -2.618439,0.13947 -2.699219,1.47657 -0.08777,1.45269 2.914467,0.83287 2.699219,2.25976 -0.369,2.44608 -5.134418,-1.50684 -5.359375,0.97266 -0.252017,2.77779 4.678188,0.72682 5.75,2.93945 a 47.841427,47.841427 0 0 0 0.447265,0.0137 47.841427,47.841427 0 0 0 48.091796,-47.332027 47.841427,47.841427 0 0 0 -47.076171,-48.34375 z"
       id="path25" /></g><g
     id="layer6"><path
       style="display:inline;fill:#2f34bb;fill-opacity:1;stroke-width:8.19245;stroke-linecap:round;stroke-linejoin:round;stroke-miterlimit:7.3"
       d="M 47.487601,55.581375 22.590092,92.467068 c 0,0 -0.0066,0.08854 -0.0083,0.10637 -2.494911,4.057047 -3.38541,8.026582 0.30584,11.036372 0.112778,0.10932 0.22885,0.21333 0.352822,0.30421 0.01154,0.008 0.0246,0.0153 0.03616,0.0238 l 0.007,0.005 c 0.02574,0.0183 0.05421,0.0333 0.08059,0.0508 0.08085,0.0538 0.162865,0.1058 0.249239,0.15323 3.984508,2.63473 7.521657,0.5948 10.646448,-3.0182 0.01469,-0.006 0.0929,-0.039 0.0929,-0.039 L 62.037515,66.247345 Z"
       id="path12" /><path
       id="path7"
       style="display:inline;fill:#2f34bb;fill-opacity:1;stroke-width:8.19245;stroke-linecap:round;stroke-linejoin:round;stroke-miterlimit:7.3"
       d="m 65.367525,62.056512 4.429525,-5.575173 c 0.667432,-0.910135 0.938194,-1.985656 0.853632,-3.028515 -4.631343,-0.320546 -9.00684,-2.601267 -11.689214,-6.981708 -0.605374,-0.988602 -1.079942,-2.002113 -1.442966,-3.03051 -1.178347,0.154622 -2.294202,0.767564 -3.05228,1.802026 l -3.983693,5.903715 z" /><path
       id="path22"
       style="display:inline;fill:#2f34bb;fill-opacity:1;stroke-width:0.740768;stroke-linecap:round;stroke-linejoin:round;stroke-miterlimit:7.3"
       d="m 74.195224,50.792425 c 0.326763,-0.05141 0.65195,-0.115338 0.972451,-0.191272 3.289721,-0.779403 5.279987,-3.264792 6.789244,-5.50978 1.509258,-2.244989 2.748402,-4.44414 4.055901,-5.665842 0.930476,-0.869419 2.411465,-1.035095 3.956023,-0.822713 1.544558,0.212382 2.758238,0.741119 2.758238,0.741119 2.176242,0.964906 4.342001,-1.369763 3.216683,-3.467554 0,0 -3.25678,-6.522558 -9.410907,-10.729612 -2.051375,-1.402351 -4.425212,-2.548036 -7.106812,-3.108721 -7.233015,-1.512322 -13.328233,0.876245 -16.550054,5.236535 -3.585513,4.852492 -5.218449,12.279334 -1.781632,17.891813 2.706964,4.420597 8.199418,6.397242 13.100865,5.626027 z M 65.700411,43.284972 C 61.836553,38.692421 62.573246,31.820346 64.916972,29.91186 c 4.070862,-3.314888 9.523983,-2.974855 12.668088,-1.477808 0,0 -1.236159,-0.04979 -2.745185,0.390099 -1.88392,0.549171 -3.020393,2.265347 -3.020393,2.265347 0,0 1.81299,-1.303293 5.208764,-0.991083 4.667851,0.429166 6.100375,2.787286 6.100375,2.787286 0,0 -1.180165,-0.65936 -3.044373,-0.182824 -1.849775,0.472846 -2.840336,2.572944 -2.840336,2.572944 0,0 2.712924,-0.561916 4.778613,-0.340336 4.08397,0.438075 4.967279,1.694881 4.967279,1.694881 0,0 -2.377432,-0.07916 -3.989792,1.118628 -1.612359,1.197783 -3.333039,3.331308 -4.515754,5.672731 -2.358709,4.66954 -8.116232,5.411135 -12.783847,-0.136753 z" /></g><g
     id="layer7"><path
       style="display:inline;fill:#cf2a2a;fill-opacity:1;stroke-width:6.96193;stroke-linecap:round;stroke-linejoin:round;stroke-miterlimit:7.3"
       d="M 9.7388386,67.55815 29.40108,101.61415 49.693453,89.898346 30.03121,55.842344 Z"
       id="path8" /></g></svg>
