<?xml version="1.0" encoding="UTF-8" standalone="no"?>
<!-- Created with Inkscape (http://www.inkscape.org/) -->

<svg
   width="120"
   height="120"
   viewBox="0 0 120 120"
   version="1.1"
   id="svg1"
   xmlns="http://www.w3.org/2000/svg"
   xmlns:svg="http://www.w3.org/2000/svg">
  <defs
     id="defs1" />
  <rect
     style="display:inline;fill:#ffffff;fill-opacity:1;stroke:#2f34bb;stroke-width:9.41298;stroke-linecap:round;stroke-linejoin:round;stroke-miterlimit:7.3;stroke-dasharray:none;stroke-opacity:1"
     id="rect13"
     width="108.76192"
     height="97.037994"
     x="5.797142"
     y="16.107426"
     ry="20.406311"
     transform="matrix(0.99704044,-0.07687886,0,1,0,0)" />
  <g
     id="layer1"
     style="display:inline">
    <path
       style="fill:#f7cd04;fill-opacity:1;stroke:none;stroke-width:11.0135;stroke-linecap:round;stroke-linejoin:round;stroke-miterlimit:7.3;stroke-dasharray:none"
       d="m 75.178969,34.710102 c -0.0196,0.01155 -0.09911,0.0019 -0.24599,0.115652 0.167018,-0.07309 0.283653,-0.137843 0.24599,-0.115652 z"
       id="path11" />
    <path
       style="fill:#f79e04;fill-opacity:1;stroke:none;stroke-width:10.6323;stroke-linecap:round;stroke-linejoin:round;stroke-miterlimit:7.3;stroke-dasharray:none"
       d="m 68.792787,18.942622 v 7.379481 c 0.645854,0.0017 1.28805,0.01019 1.922847,0.02659 4.075904,-0.134659 9.545103,0.904706 14.835166,2.582109 2.691173,0.853333 5.294401,1.749065 7.560245,2.936551 2.26584,1.187487 4.193921,2.667591 5.532834,4.689267 0.70298,1.061906 0.70369,2.441023 0.002,3.503658 -1.550726,2.346156 -3.964706,3.433025 -6.282477,4.134564 -2.170368,0.656923 -4.430901,1.014138 -6.594391,1.408906 2.447115,3.349726 3.932682,7.45022 4.033549,11.903931 l 0.0036,0.446594 c -2.99e-4,11.561555 -9.340048,20.951195 -20.901437,21.013087 -0.0023,-2.16e-4 -0.0046,-4.31e-4 -0.007,-6.44e-4 -0.0024,-2.14e-4 -0.0046,-4.23e-4 -0.0069,-6.26e-4 -0.0024,-2.03e-4 -0.0046,-4.21e-4 -0.007,-6.37e-4 -0.0024,-2.17e-4 -0.0046,-4.33e-4 -0.007,-6.33e-4 -0.0024,-2e-4 -0.0046,-4.19e-4 -0.007,-6.37e-4 -0.0024,-2.19e-4 -0.0046,-4.37e-4 -0.007,-6.34e-4 -0.0024,-1.97e-4 -0.0046,-4.17e-4 -0.007,-6.47e-4 -0.0024,-2.32e-4 -0.0046,-4.73e-4 -0.007,-7.14e-4 -0.0023,-2.38e-4 -0.0046,-4.6e-4 -0.007,-6.81e-4 -0.0024,-2.22e-4 -0.0046,-4.44e-4 -0.007,-6.8e-4 -0.0023,-2.36e-4 -0.0046,-4.59e-4 -0.007,-6.82e-4 -0.0024,-2.23e-4 -0.0046,-4.46e-4 -0.0069,-6.79e-4 -0.0023,-2.32e-4 -0.0046,-4.58e-4 -0.007,-6.82e-4 -0.0024,-2.25e-4 -0.0046,-4.49e-4 -0.007,-6.78e-4 -0.0023,-2.29e-4 -0.0046,-4.56e-4 -0.007,-6.83e-4 -0.0024,-2.26e-4 -0.0046,-4.52e-4 -0.007,-6.79e-4 0,0 -0.371667,0.76799 -0.236118,1.127125 0.267798,0.709523 1.870926,0.606477 1.821489,1.363243 -0.03951,0.604909 -1.623366,0.286 -1.585371,0.891007 0.06621,1.054072 2.939553,0.138451 2.934622,1.194587 -0.0057,1.233595 -3.496795,0.130918 -3.44059,1.363245 0.03525,0.772726 2.062982,-0.101213 2.226265,0.654887 0.172349,0.798085 -1.987507,0.793666 -1.855221,1.599361 0.127814,0.778466 2.157212,0.102911 2.192533,0.891007 0.03454,0.770706 -2.005852,0.289921 -2.057609,1.059663 -0.0598,0.889553 2.322058,0.649798 2.192534,1.531901 -0.111788,0.761324 -2.170497,-0.04682 -2.192534,0.722349 -0.02319,0.809432 2.192366,0.08407 2.259996,0.891006 0.07348,0.876699 -2.440197,0.502124 -2.259996,1.363245 0.308921,1.476207 4.297931,-0.908957 4.48626,0.587423 0.220787,1.754274 -4.317719,0.309776 -4.924765,1.970407 -0.106777,0.292104 0.438505,0.823544 0.438505,0.823544 0.0043,2.86e-4 0.0086,5.81e-4 0.01295,8.77e-4 0.0043,2.85e-4 0.0086,5.81e-4 0.01296,8.47e-4 0.0043,2.76e-4 0.0086,5.63e-4 0.01295,8.67e-4 0.0043,2.86e-4 0.0086,5.91e-4 0.01297,8.58e-4 0.0043,2.76e-4 0.0086,5.62e-4 0.01295,8.77e-4 0.0043,3.05e-4 0.0086,6.19e-4 0.01296,9.04e-4 0.0042,3.15e-4 0.0086,6.11e-4 0.01295,9.06e-4 0.0043,2.95e-4 0.0086,5.91e-4 0.01297,9.05e-4 0.0042,3.24e-4 0.0086,6.1e-4 0.01295,9.15e-4 0.0043,2.85e-4 0.0086,5.81e-4 0.01297,9.05e-4 0.0042,3.15e-4 0.0086,6.1e-4 0.01295,9.06e-4 0.0043,2.94e-4 0.0086,5.9e-4 0.01297,9.04e-4 0.0042,3.25e-4 0.0086,6.1e-4 0.01296,8.96e-4 0.0043,2.86e-4 0.0086,5.62e-4 0.01296,8.29e-4 0.0043,2.77e-4 0.0086,5.62e-4 0.01296,8.67e-4 0.0043,2.86e-4 0.0086,5.91e-4 0.01296,8.58e-4 21.486089,-0.11417 38.843537,-17.564294 38.843367,-39.050592 l -0.01,-0.829393 C 107.36235,35.901179 90.021736,18.942323 68.792787,18.942622 Z"
       id="path1" />
  </g>
  <g
     id="layer2"
     style="display:inline"
     transform="matrix(0.64152407,0.37038409,-0.37038409,0.64152407,16.074975,17.745538)">
    <path
       id="path3"
       style="fill:#f79e04;fill-opacity:1;stroke-width:10;stroke-linecap:round;stroke-linejoin:round;stroke-miterlimit:7.3"
       d="m 94.215688,-30.105436 c -9.003652,0.108083 -17.43753,1.888944 -22.856868,11.906981 -2.016309,3.727291 0.289152,9.4730381 1.784491,13.5100461 1.010311,-0.041923 2.010421,0.1956371 2.89501,0.6855218 l 10.550123,6.0905945 c 0.872464,0.5079893 1.590889,1.2456668 2.072384,2.1330259 4.335,-0.7554902 11.538822,-1.9167665 13.433082,-5.8137486 5.828,-11.9897117 28.23642,-7.0752834 33.74084,-15.4031387 -4.85734,-7.334266 -27.81518,-13.506006 -37.732682,-13.072369 -1.302419,-0.03362 -2.600144,-0.05235 -3.88638,-0.03691 z m -0.806806,4.674729 c 0.838553,-0.01007 1.684691,0.0018 2.533793,0.02373 1.932014,-0.08448 9.826865,0.582085 12.735405,1.171976 0,0 1.55793,0.303153 1.46521,1.012028 -0.0927,0.708875 -8.46329,0.948829 -8.89054,1.89081 -0.32,0.705502 6.07967,0.366148 6.13682,1.214777 0.0572,0.848629 -4.65234,0.732069 -4.64441,1.42061 0.008,0.688541 4.72863,0.387207 4.1975,1.334129 -0.53113,0.946923 -7.221347,2.581448 -6.66011,3.49616 0.56124,0.914713 7.02272,-1.101815 7.99424,-0.08701 0.14508,0.15155 0.24948,0.289942 0.32211,0.415725 0.28828,0.499275 -0.72408,1.125166 -1.35061,1.30822 -2.98356,0.871706 -5.80284,2.7279538 -7.615208,5.0879309 -0.737337,0.9601231 -1.685006,2.7572444 -2.712622,3.3693332 -1.300653,0.7747199 -3.081911,1.2701388 -4.482877,1.5137195 -1.193759,0.2075544 -3.045983,-0.3826339 -4.100805,-0.9970089 l -8.009246,-4.6649389 c -1.572103,-0.9156622 -3.685702,-2.9163568 -4.092895,-4.6700008 -0.363089,-1.563702 -0.489901,-3.393567 0.168448,-4.610578 3.5331,-6.531187 11.13593,-8.159147 17.005797,-8.229612 z"
       transform="matrix(0.78580653,-0.45368562,0.45368562,0.78580653,8.3850185,45.058185)" />
    <path
       style="fill:#2f34bb;fill-opacity:1;stroke-width:9.07371;stroke-linecap:round;stroke-linejoin:round;stroke-miterlimit:7.3"
       d="m 61.856358,28.031618 1.913915,49.252218 c 0,0 0.05212,0.08337 0.0622,0.10048 0.428073,5.257748 2.231996,9.386703 7.500155,9.658094 0.172321,0.02384 0.344113,0.04066 0.514364,0.04066 0.01582,-2.2e-5 0.03198,-0.0022 0.04784,-0.0024 h 0.0096 c 0.03494,-5.6e-4 0.07023,-0.0056 0.105267,-0.0071 0.107426,-0.0048 0.21476,-0.01212 0.322973,-0.02632 5.284508,-0.255679 7.108299,-4.394099 7.533648,-9.667663 0.009,-0.01527 0.05742,-0.0957 0.05742,-0.0957 L 81.837656,28.03167 Z"
       id="path12" />
    <path
       style="fill:#2f34bb;fill-opacity:1;stroke-width:9.07371;stroke-linecap:round;stroke-linejoin:round;stroke-miterlimit:7.3"
       d="m 66.320565,9.2297937 c -2.761284,-4.59e-4 -5.000563,2.2364283 -5.000102,4.9977113 l 0.306224,7.880546 h 20.440616 l 0.306226,-7.880546 C 82.373985,11.466182 80.13471,9.2293347 77.373425,9.2297937 Z"
       id="path7" />
  </g>
  <g
     id="layer3">
    <path
       style="display:inline;fill:#cf2a2a;fill-opacity:1;stroke-width:5.71195;stroke-linecap:round;stroke-linejoin:round;stroke-miterlimit:7.3"
       d="M 12.15637,66.202902 28.288358,94.144327 44.937343,84.532032 28.805353,56.590608 Z"
       id="path8" />
  </g>
</svg>
