<svg width="120" height="120" xmlns="http://www.w3.org/2000/svg" xmlns:xlink="http://www.w3.org/1999/xlink" xml:space="preserve" overflow="hidden"><g transform="translate(-580 -300)"><path d="M643.182 312.162C642.928 312.173 642.674 312.187 642.421 312.203L642.421 324.004C646.485 320.008 652.924 318.125 659.938 319.591 663.027 320.237 665.709 321.504 667.995 323.041 674.853 327.651 678.147 334.693 678.147 334.693 679.453 337.126 678.539 340.158 676.105 341.464 674.745 342.194 673.125 342.254 671.714 341.629 671.714 341.629 670.786 341.239 669.628 341.08 668.469 340.92 667.865 341.115 667.719 341.252 666.853 342.061 665.641 344.092 664.032 346.486 663.148 347.801 662.013 349.344 660.467 350.634 662.005 353.592 662.791 356.882 662.758 360.215 662.639 371.404 653.503 380.395 642.313 380.336 642.049 380.333 641.784 380.325 641.52 380.312 641.616 380.715 641.695 381.189 641.61 381.5 641.29 382.675 639.375 382.504 639.434 383.757 639.481 384.76 641.374 384.232 641.329 385.234 641.25 386.981 637.817 385.464 637.823 387.215 637.83 389.259 641.999 387.43 641.932 389.472 641.89 390.753 639.469 389.305 639.274 390.558 639.068 391.881 641.647 391.874 641.489 393.209 641.336 394.499 638.912 393.379 638.87 394.685 638.829 395.962 641.267 395.166 641.329 396.441 641.4 397.915 638.555 397.517 638.71 398.978 638.843 400.24 641.302 398.901 641.329 400.175 641.357 401.517 638.71 400.315 638.63 401.652 638.542 403.105 641.544 402.485 641.329 403.912 640.96 406.358 636.194 402.405 635.969 404.884 635.717 407.662 640.648 405.611 641.719 407.824 641.868 407.829 642.018 407.834 642.167 407.838 668.489 407.977 689.979 386.826 690.258 360.506 690.538 334.184 669.502 312.581 643.182 312.162Z" fill="#F7A704"/><path d="M627.488 355.581 602.59 392.467C602.59 392.467 602.583 392.556 602.582 392.573 600.087 396.63 599.196 400.6 602.888 403.61 603 403.719 603.116 403.823 603.24 403.914 603.252 403.922 603.265 403.929 603.277 403.938L603.284 403.943C603.309 403.961 603.338 403.976 603.364 403.994 603.445 404.047 603.527 404.099 603.613 404.147 607.598 406.782 611.135 404.742 614.26 401.129 614.275 401.123 614.353 401.09 614.353 401.09L642.038 366.247Z" fill="#2F34BB"/><path d="M645.368 362.057 649.797 356.481C650.464 355.571 650.735 354.496 650.651 353.453 646.019 353.132 641.644 350.852 638.961 346.471 638.356 345.483 637.882 344.469 637.518 343.441 636.34 343.595 635.224 344.208 634.466 345.243L630.483 351.146Z" fill="#2F34BB"/><path d="M654.195 350.792C654.522 350.741 654.847 350.677 655.168 350.601 658.457 349.822 660.448 347.336 661.957 345.091 663.466 342.846 664.705 340.647 666.013 339.426 666.943 338.556 668.424 338.39 669.969 338.603 671.513 338.815 672.727 339.344 672.727 339.344 674.903 340.309 677.069 337.974 675.944 335.876 675.944 335.876 672.687 329.354 666.533 325.147 664.482 323.744 662.108 322.599 659.426 322.038 652.193 320.526 646.098 322.914 642.876 327.275 639.29 332.127 637.658 339.554 641.094 345.166 643.801 349.587 649.294 351.564 654.195 350.792ZM644.474 343.768C638.404 336.24 644.474 327.125 650.878 326.95 654.977 326.838 657.201 329.022 657.201 329.022 657.201 329.022 654.797 328.958 653.607 329.93 652.015 331.232 652.34 333.097 652.34 333.097 652.34 333.097 653.854 330.843 657.288 331.288 660.723 331.733 663.017 333.109 663.017 333.109 663.017 333.109 661.564 332.433 659.75 333.075 657.677 333.808 656.909 335.648 656.909 335.648 656.909 335.648 659.622 335.086 661.688 335.307 665.772 335.745 666.99 336.63 666.99 336.63 666.99 336.63 664.612 336.551 663 337.749 661.388 338.947 659.667 341.08 658.484 343.422 656.126 348.091 647.513 347.537 644.474 343.768Z" fill="#2F34BB"/><path d="M589.739 367.558 609.401 401.614 629.693 389.898 610.031 355.842Z" fill="#CF2A2A"/></g></svg>