<svg width="120" height="120" xmlns="http://www.w3.org/2000/svg" xmlns:xlink="http://www.w3.org/1999/xlink" xml:space="preserve" overflow="hidden"><g transform="translate(-580 -300)"><path d="M668.175 332.651 681.349 332.651 681.349 349.825 681.349 367 681.349 384.175 681.349 401.349 664.175 401.349 647 401.349 629.825 401.349 612.651 401.349 612.651 388.175" stroke="#000000" stroke-width="7" stroke-linecap="round" stroke-linejoin="round" stroke-miterlimit="7.3" fill="none"/><path d="M615.825 318.651 633 318.651 650.175 318.651 667.349 318.651 667.349 335.825 667.349 353 667.349 370.175 667.349 387.349 650.175 387.349 633 387.349 615.825 387.349 598.651 387.349 598.651 370.175 598.651 353 598.651 335.825Z" stroke="#000000" stroke-width="7" stroke-linecap="round" stroke-linejoin="round" stroke-miterlimit="7.3" fill="none"/><path d="M615.825 335.825 615.825 318.651 598.651 335.825Z" stroke="#000000" stroke-width="7" stroke-linecap="round" stroke-linejoin="round" stroke-miterlimit="7.3" fill="none"/></g></svg>