<svg width="120" height="120" xmlns="http://www.w3.org/2000/svg" xmlns:xlink="http://www.w3.org/1999/xlink" xml:space="preserve" overflow="hidden"><g transform="translate(-580 -300)"><path d="M658.104 364.388C656.879 364.388 656.162 365.77 656.868 366.772L663.453 376.127 656.286 386.324C655.583 387.326 656.299 388.704 657.523 388.705L661.894 388.705C662.399 388.705 662.872 388.452 663.152 388.032L667.474 381.54 671.759 388.026C672.039 388.45 672.513 388.705 673.021 388.705L677.453 388.705C678.676 388.704 679.392 387.325 678.689 386.324L671.395 375.945 678.11 366.796C678.844 365.797 678.13 364.388 676.891 364.388L672.581 364.388C672.091 364.388 671.632 364.625 671.349 365.023L667.76 370.055C667.66 370.193 667.539 370.38 667.436 370.525 667.328 370.357 667.269 370.25 667.153 370.071 667.151 370.069 667.15 370.067 667.149 370.065L663.881 365.073C663.602 364.646 663.126 364.389 662.616 364.389Z"/><path d="M646.556 363.907C644.97 363.907 643.516 364.225 642.275 364.92 641.993 365.075 641.75 365.303 641.485 365.492 641.35 364.948 640.925 364.523 640.381 364.388L637.094 364.388C636.258 364.388 635.581 365.065 635.581 365.901L635.581 395.353C635.581 396.189 636.258 396.866 637.094 396.866L640.702 396.866C641.538 396.866 642.215 396.189 642.215 395.353L642.215 388.166C642.257 388.189 642.291 388.222 642.334 388.245 642.336 388.246 642.339 388.248 642.342 388.249 643.534 388.879 644.881 389.186 646.297 389.186 648.223 389.186 650.09 388.629 651.786 387.575 651.787 387.574 651.788 387.574 651.789 387.573 653.542 386.477 654.893 384.876 655.775 382.902L655.776 382.9C656.66 380.935 657.091 378.747 657.091 376.387 657.091 374.179 656.702 372.106 655.911 370.211 655.106 368.269 653.857 366.676 652.212 365.569 650.569 364.463 648.633 363.907 646.556 363.907ZM646.216 369.759C647.327 369.759 648.147 370.149 649.037 371.232 649.039 371.234 649.041 371.236 649.042 371.238 649.846 372.205 650.377 373.861 650.377 376.366 650.377 379.009 649.824 380.74 649.009 381.707L649.008 381.708C648.097 382.79 647.235 383.195 646.055 383.195 644.897 383.195 644.06 382.804 643.179 381.764 642.406 380.851 641.873 379.202 641.873 376.666 641.873 374.144 642.417 372.438 643.292 371.373L643.293 371.372C644.278 370.177 645.152 369.758 646.215 369.758Z"/><path d="M669.915 379.747C666.583 373.655 669.915 379.747 669.915 379.747Z"/><path d="M624.523 356.168C623.948 356.169 623.422 356.495 623.167 357.011 622.658 358.039 621.719 359.221 620.307 360.483 618.915 361.727 617.278 362.797 615.378 363.69 614.848 363.939 614.509 364.473 614.509 365.058L614.509 368.547C614.509 369.599 615.557 370.33 616.545 369.966 617.781 369.51 619.116 368.849 620.574 367.989L620.577 367.987C621.038 367.716 621.314 367.425 621.727 367.151L621.727 387.193C621.727 388.028 622.404 388.705 623.239 388.705L626.848 388.705C627.683 388.705 628.36 388.028 628.36 387.193L628.36 357.681C628.36 356.846 627.683 356.169 626.848 356.168Z"/><path d="M620.64 349.749 601.083 338.191 620.64 326.634" stroke="#000000" stroke-width="7" stroke-linecap="round" stroke-linejoin="round" stroke-miterlimit="7.3" fill="none"/><path d="M604.616 338.191 678.966 338.191Z" stroke="#000000" stroke-width="7" stroke-linecap="round" stroke-linejoin="round" stroke-miterlimit="7.3" fill="none"/></g></svg>