<?xml version="1.0" encoding="UTF-8" standalone="no"?>
<!-- Created with Inkscape (http://www.inkscape.org/) -->

<svg
   width="120"
   height="120"
   viewBox="0 0 120 120"
   version="1.1"
   id="svg1"
   xmlns="http://www.w3.org/2000/svg"
   xmlns:svg="http://www.w3.org/2000/svg">
  <defs
     id="defs1" />
  <g
     id="layer3"
     transform="translate(0.6264235,19.51899)">
    <path
       id="rect37"
       style="fill:#000000;fill-opacity:1;stroke:none;stroke-width:6.23173;stroke-linecap:round;stroke-linejoin:round;stroke-miterlimit:7.3;stroke-opacity:1"
       d="m 87.193527,-12.157659 c -2.289892,-1.32207 -5.217243,-0.53769 -6.539313,1.752203 l -30.56543,52.940877 12.232609,7.0625 30.56543,-52.940877 c 1.322071,-2.289892 0.537689,-5.217243 -1.752204,-6.539313 z m -39.050056,58.06246 -5.757812,9.972824 c -1.110467,1.923388 -0.451421,4.382982 1.471966,5.49345 l 5.267193,3.041016 c 1.923387,1.110468 4.382982,0.451421 5.49345,-1.471966 l 5.757812,-9.972824 z" />
    <path
       style="fill:#000000;fill-opacity:1;stroke:none;stroke-width:6.19501;stroke-linecap:round;stroke-linejoin:round;stroke-miterlimit:7.3;stroke-opacity:1"
       d="m 27.458876,66.176885 c -0.114993,0.175435 -0.227724,0.352449 -0.33813,0.530979 -1.269167,2.263302 -2.074648,5.300278 -1.871387,8.046524 0.287708,3.887207 3.731712,7.018811 4.296806,10.875472 0.394419,2.691843 -0.695276,8.13209 -0.695276,8.13209 0,0 4.160384,-3.820712 6.715117,-4.887305 3.599557,-1.502803 8.062832,-0.136054 11.549073,-1.885726 2.46885,-1.239064 4.670267,-3.506952 5.958278,-5.759639 0.03447,-0.0681 0.06865,-0.136315 0.102419,-0.204736 z"
       id="path42" />
    <path
       style="fill:#000000;fill-opacity:1;stroke:none;stroke-width:6.19501;stroke-linecap:round;stroke-linejoin:round;stroke-miterlimit:7.3;stroke-opacity:1"
       d="m 55.636777,66.191641 c -2.174782,1.839486 -5.379846,2.241201 -7.968275,0.74677 l -5.268885,-3.041992 c -2.586477,-1.493302 -3.841257,-4.466758 -3.338654,-7.268063 -3.691139,1.129299 -7.178079,3.614707 -9.86455,7.031213 l 25.285574,14.598633 c 1.616642,-4.037793 2.024874,-8.303462 1.15479,-12.066561 z"
       id="path44" />
  </g>
</svg>
