<?xml version="1.0" encoding="UTF-8" standalone="no"?>
<!-- Created with Inkscape (http://www.inkscape.org/) -->

<svg
   width="120"
   height="120"
   viewBox="0 0 120 120"
   version="1.1"
   id="svg1"
   xml:space="preserve"
   xmlns="http://www.w3.org/2000/svg"
   xmlns:svg="http://www.w3.org/2000/svg"><defs
     id="defs1" /><g
     id="layer4"
     transform="matrix(0.86432029,0,0,0.86432029,9.8764622,11.26989)"><path
       id="rect13"
       style="fill:none;stroke:#000000;stroke-width:6.77002;stroke-linecap:round;stroke-linejoin:round;stroke-miterlimit:7.3"
       d="M 44.183679,103.02054 63.098286,91.843092 44.183679,80.665646" /><path
       id="path5"
       style="fill:none;stroke:#000000;stroke-width:5.64039;stroke-linecap:round;stroke-miterlimit:7.3"
       d="m 21.588086,58.811808 c 2e-5,0.116952 -0.0068,0.232228 -0.0057,0.349457 0.191958,18.068515 14.897704,32.5951 32.945324,32.593939" /></g><g
     id="layer5"><path
       style="fill:none;stroke:#000000;stroke-width:5.33186;stroke-linecap:round;stroke-linejoin:miter;stroke-miterlimit:7.3"
       id="path4"
       d="M 38.502076,30.41667 A 14.227075,14.227075 0 0 1 24.350556,44.643544 14.227075,14.227075 0 0 1 10.048729,30.567777 14.227075,14.227075 0 0 1 24.048346,16.191401 14.227075,14.227075 0 0 1 38.498866,30.114472 Z" /><path
       id="rect4"
       style="fill:none;stroke:#000000;stroke-width:5.33186;stroke-linecap:round;stroke-miterlimit:7.3"
       d="M 38.494829,25.540665 H 61.383924 V 54.763844 H 32.160744 V 42.378439" /></g><path
     style="font-size:63.4345px;font-family:'Times New Roman';-inkscape-font-specification:'Times New Roman, ';text-align:center;letter-spacing:0px;text-anchor:middle;fill:none;stroke:#000000;stroke-width:4.95469;stroke-linecap:round;stroke-miterlimit:7.3"
     d="m 90.100568,84.330596 v 12.234682 q 0,3.964652 0.867269,4.924842 1.177007,1.36285 3.561996,1.36285 h 1.610641 v 1.14604 H 78.144651 v -1.14604 h 1.579668 q 2.663754,0 3.809787,-1.73453 0.619478,-0.96019 0.619478,-4.553162 V 69.432161 q 0,-3.964657 -0.836295,-4.924847 -1.207981,-1.362851 -3.59297,-1.362851 H 78.144651 V 61.99843 h 15.394018 q 5.637245,0 8.889501,1.177007 3.25226,1.146034 5.48238,3.902709 2.23012,2.756675 2.23012,6.535488 0,5.141664 -3.40713,8.362947 -3.37615,3.221283 -9.570928,3.221283 -1.51772,0 -3.283231,-0.216817 -1.765511,-0.216817 -3.778813,-0.650451 z m 0,-1.765511 q 1.641616,0.309739 2.911545,0.464608 1.269929,0.154869 2.168171,0.154869 3.221284,0 5.544326,-2.47791 2.35401,-2.508884 2.35401,-6.47354 0,-2.725702 -1.11506,-5.048742 -1.11506,-2.354015 -3.159332,-3.500049 -2.044276,-1.177007 -4.646082,-1.177007 -1.579667,0 -4.057578,0.588504 z"
     id="text4"
     aria-label="P" /></svg>
