<?xml version="1.0" encoding="UTF-8" standalone="no"?>
<!-- Created with Inkscape (http://www.inkscape.org/) -->

<svg
   width="120"
   height="120"
   viewBox="0 0 120 120"
   version="1.1"
   id="svg1"
   xml:space="preserve"
   xmlns="http://www.w3.org/2000/svg"
   xmlns:svg="http://www.w3.org/2000/svg"><defs
     id="defs1" /><path
     id="rect6"
     style="fill:#000000;fill-opacity:1;stroke:none;stroke-width:5.832;stroke-linecap:round;stroke-linejoin:miter;stroke-miterlimit:7.3"
     d="M 51.673828,7.3613281 V 18.384766 a 42.527882,42.527882 0 0 0 -15.269531,6.24414 l -7.738281,-7.738281 -11.775391,11.775391 7.783203,7.783203 A 42.527882,42.527882 0 0 0 18.4375,51.673828 H 7.3613281 V 68.326172 H 18.435547 a 42.527882,42.527882 0 0 0 6.283203,15.179687 l -7.828125,7.828125 11.775391,11.775396 7.880859,-7.880864 a 42.527882,42.527882 0 0 0 15.126953,6.369144 v 11.04101 H 68.326172 V 101.5918 a 42.527882,42.527882 0 0 0 15.25,-6.240238 l 7.757812,7.757818 11.775396,-11.775396 -7.767583,-7.767578 a 42.527882,42.527882 0 0 0 6.238283,-15.240234 h 11.05859 V 51.673828 H 101.57422 A 42.527882,42.527882 0 0 0 95.273438,36.501953 L 103.10938,28.666016 91.333984,16.890625 83.453125,24.771484 A 42.527882,42.527882 0 0 0 68.326172,18.404297 V 7.3613281 Z m 7.892578,25.3710939 a 27.270395,27.270395 0 0 1 27.697266,26.6875 L 87.269531,60 a 27.270395,27.270395 0 0 1 -27.125,27.269531 27.270395,27.270395 0 0 1 -27.414062,-26.980469 27.270395,27.270395 0 0 1 26.835937,-27.55664 z" /></svg>
