<svg width="120" height="120" xmlns="http://www.w3.org/2000/svg" xmlns:xlink="http://www.w3.org/1999/xlink" xml:space="preserve" overflow="hidden"><g transform="translate(-410 -183)"><path d="M496.437 242.939C495.211 242.939 494.495 244.321 495.201 245.322L501.786 254.678 494.618 264.875C493.915 265.877 494.632 267.255 495.856 267.256L500.226 267.256C500.732 267.256 501.204 267.003 501.485 266.582L505.807 260.091 510.091 266.577C510.371 267.001 510.845 267.256 511.353 267.256L515.785 267.256C517.009 267.255 517.724 265.876 517.021 264.875L509.727 254.496 516.442 245.347C517.176 244.348 516.463 242.939 515.223 242.939L510.913 242.939C510.424 242.939 509.965 243.176 509.681 243.574L506.093 248.606C505.993 248.744 505.872 248.931 505.768 249.076 505.661 248.908 505.602 248.801 505.486 248.622 505.484 248.62 505.483 248.618 505.482 248.616L502.213 243.623C501.934 243.197 501.458 242.939 500.948 242.939Z"/><path d="M484.889 242.458C483.303 242.458 481.849 242.775 480.607 243.471 480.325 243.626 480.082 243.854 479.818 244.043 479.683 243.499 479.258 243.074 478.714 242.939L475.426 242.939C474.591 242.939 473.914 243.616 473.914 244.451L473.914 273.904C473.914 274.74 474.591 275.417 475.426 275.417L479.035 275.417C479.87 275.417 480.547 274.74 480.547 273.904L480.547 266.717C480.59 266.74 480.623 266.773 480.666 266.796 480.668 266.797 480.671 266.799 480.674 266.8 481.867 267.43 483.213 267.737 484.629 267.737 486.556 267.737 488.422 267.18 490.119 266.126 490.12 266.125 490.121 266.125 490.122 266.124 491.875 265.028 493.226 263.427 494.107 261.453L494.108 261.451C494.993 259.486 495.423 257.298 495.423 254.938 495.423 252.73 495.035 250.657 494.244 248.762 493.439 246.819 492.189 245.226 490.545 244.12 488.901 243.013 486.966 242.458 484.889 242.458ZM484.548 248.309C485.66 248.309 486.48 248.7 487.37 249.783 487.372 249.785 487.374 249.787 487.375 249.789 488.179 250.756 488.71 252.412 488.71 254.917 488.71 257.56 488.156 259.292 487.341 260.258L487.34 260.259C486.43 261.341 485.567 261.746 484.388 261.746 483.229 261.746 482.392 261.355 481.511 260.315 480.738 259.402 480.205 257.754 480.205 255.218 480.205 252.695 480.749 250.989 481.624 249.925L481.625 249.924C482.611 248.728 483.484 248.309 484.548 248.309Z"/><path d="M508.247 258.298C504.916 252.206 508.247 258.298 508.247 258.298Z"/><path d="M462.855 234.719C462.28 234.719 461.755 235.046 461.5 235.561 460.991 236.59 460.052 237.771 458.64 239.034 457.247 240.278 455.611 241.348 453.711 242.241 453.18 242.49 452.842 243.023 452.842 243.609L452.842 247.098C452.842 248.15 453.89 248.881 454.877 248.517 456.113 248.06 457.449 247.4 458.907 246.539L458.909 246.537C459.371 246.267 459.646 245.976 460.059 245.702L460.059 265.744C460.059 266.579 460.736 267.256 461.572 267.256L465.181 267.256C466.016 267.256 466.693 266.579 466.693 265.744L466.693 236.232C466.693 235.396 466.016 234.719 465.181 234.719Z"/><path d="M426.202 223.64 437.759 204.083 449.316 223.64" stroke="#000000" stroke-width="7" stroke-linecap="round" stroke-linejoin="round" stroke-miterlimit="7.3" fill="none"/><path d="M437.759 207.616 437.759 281.966Z" stroke="#000000" stroke-width="7" stroke-linecap="round" stroke-linejoin="round" stroke-miterlimit="7.3" fill="none"/></g></svg>