<svg width="120" height="120" xmlns="http://www.w3.org/2000/svg" xmlns:xlink="http://www.w3.org/1999/xlink" xml:space="preserve" overflow="hidden"><g transform="translate(-580 -300)"><path d="M666.437 339.254C665.211 339.254 664.495 340.635 665.201 341.637L671.786 350.992 664.618 361.19C663.915 362.192 664.632 363.57 665.856 363.571L670.226 363.571C670.732 363.571 671.204 363.318 671.485 362.897L675.807 356.406 680.091 362.892C680.371 363.316 680.845 363.571 681.353 363.571L685.785 363.571C687.009 363.57 687.724 362.191 687.021 361.19L679.727 350.811 686.442 341.662C687.176 340.663 686.463 339.254 685.223 339.254L680.913 339.254C680.424 339.254 679.965 339.49 679.681 339.889L676.093 344.921C675.993 345.059 675.872 345.246 675.768 345.391 675.661 345.223 675.602 345.116 675.486 344.937 675.484 344.935 675.483 344.933 675.482 344.931L672.213 339.939C671.934 339.512 671.458 339.255 670.948 339.254Z"/><path d="M654.889 338.773C653.303 338.773 651.849 339.09 650.607 339.786 650.325 339.941 650.082 340.169 649.818 340.358 649.683 339.814 649.258 339.389 648.714 339.254L645.426 339.254C644.591 339.254 643.914 339.931 643.914 340.766L643.914 370.219C643.914 371.054 644.591 371.731 645.426 371.732L649.035 371.732C649.87 371.731 650.547 371.054 650.547 370.219L650.547 363.032C650.59 363.055 650.623 363.088 650.666 363.111 650.668 363.112 650.671 363.114 650.674 363.115 651.867 363.744 653.213 364.052 654.629 364.052 656.556 364.052 658.422 363.495 660.119 362.441 660.12 362.44 660.121 362.44 660.122 362.439 661.875 361.343 663.226 359.742 664.107 357.768L664.108 357.766C664.993 355.801 665.423 353.613 665.423 351.252 665.423 349.045 665.035 346.972 664.244 345.077 663.439 343.134 662.189 341.541 660.545 340.434 658.901 339.328 656.966 338.773 654.889 338.773ZM654.548 344.624C655.66 344.624 656.48 345.015 657.37 346.098 657.372 346.1 657.374 346.102 657.375 346.104 658.179 347.071 658.71 348.727 658.71 351.232 658.71 353.875 658.156 355.606 657.341 356.573L657.34 356.574C656.43 357.656 655.567 358.06 654.388 358.06 653.229 358.06 652.392 357.67 651.511 356.63 650.738 355.717 650.205 354.068 650.205 351.532 650.205 349.009 650.749 347.303 651.624 346.239L651.625 346.238C652.611 345.042 653.484 344.624 654.548 344.624Z"/><path d="M678.247 354.613C674.916 348.521 678.247 354.613 678.247 354.613Z"/><path d="M632.855 331.034C632.28 331.034 631.755 331.361 631.5 331.876 630.991 332.905 630.052 334.086 628.64 335.349 627.247 336.593 625.61 337.663 623.711 338.556 623.18 338.805 622.842 339.338 622.842 339.924L622.842 343.413C622.842 344.465 623.89 345.195 624.877 344.832 626.113 344.375 627.449 343.715 628.907 342.854L628.909 342.852C629.371 342.582 629.646 342.291 630.059 342.017L630.059 362.059C630.059 362.894 630.736 363.571 631.572 363.571L635.18 363.571C636.016 363.571 636.693 362.894 636.693 362.059L636.693 332.547C636.693 331.711 636.016 331.034 635.18 331.034Z"/><path d="M596.202 379.36 607.759 398.917 619.316 379.36" stroke="#000000" stroke-width="7" stroke-linecap="round" stroke-linejoin="round" stroke-miterlimit="7.3" fill="none"/><path d="M607.759 395.384 607.759 321.034Z" stroke="#000000" stroke-width="7" stroke-linecap="round" stroke-linejoin="round" stroke-miterlimit="7.3" fill="none"/></g></svg>