<svg width="120" height="120" xmlns="http://www.w3.org/2000/svg" xmlns:xlink="http://www.w3.org/1999/xlink" xml:space="preserve" overflow="hidden"><g transform="translate(-580 -300)"><path d="M642.904 364.388C641.678 364.388 640.962 365.77 641.668 366.772L648.253 376.127 641.086 386.324C640.382 387.326 641.099 388.704 642.323 388.705L646.693 388.705C647.199 388.705 647.671 388.452 647.952 388.032L652.274 381.54 656.558 388.026C656.839 388.45 657.313 388.705 657.82 388.705L662.252 388.705C663.476 388.704 664.191 387.325 663.488 386.324L656.194 375.945 662.909 366.796C663.644 365.797 662.93 364.388 661.69 364.388L657.38 364.388C656.891 364.388 656.432 364.625 656.148 365.023L652.56 370.055C652.46 370.193 652.339 370.38 652.235 370.525 652.128 370.357 652.069 370.25 651.953 370.071 651.951 370.069 651.95 370.067 651.949 370.065L648.681 365.073C648.401 364.646 647.925 364.389 647.415 364.389Z"/><path d="M631.356 363.907C629.77 363.907 628.316 364.225 627.074 364.92 626.792 365.075 626.549 365.303 626.285 365.492 626.15 364.948 625.725 364.523 625.181 364.388L621.893 364.388C621.058 364.388 620.381 365.065 620.381 365.901L620.381 395.353C620.381 396.189 621.058 396.866 621.893 396.866L625.502 396.866C626.337 396.866 627.014 396.189 627.014 395.353L627.014 388.166C627.057 388.189 627.091 388.222 627.133 388.245 627.135 388.246 627.138 388.248 627.141 388.249 628.334 388.879 629.68 389.186 631.096 389.186 633.023 389.186 634.889 388.629 636.586 387.575 636.587 387.574 636.588 387.574 636.589 387.573 638.342 386.477 639.693 384.876 640.575 382.902L640.576 382.9C641.46 380.935 641.89 378.747 641.89 376.387 641.89 374.179 641.502 372.106 640.711 370.211 639.906 368.269 638.656 366.676 637.012 365.569 635.368 364.463 633.433 363.907 631.356 363.907ZM631.015 369.759C632.127 369.759 632.947 370.149 633.837 371.232 633.839 371.234 633.841 371.236 633.842 371.238 634.646 372.205 635.177 373.861 635.177 376.366 635.177 379.009 634.623 380.74 633.808 381.707L633.807 381.708C632.897 382.79 632.034 383.195 630.855 383.195 629.696 383.195 628.859 382.804 627.978 381.764 627.205 380.851 626.672 379.202 626.672 376.666 626.672 374.144 627.216 372.438 628.091 371.373L628.092 371.372C629.078 370.177 629.951 369.758 631.015 369.758Z"/><path d="M654.714 379.747C651.383 373.655 654.714 379.747 654.714 379.747Z"/><path d="M609.322 356.168C608.747 356.169 608.222 356.495 607.967 357.011 607.458 358.039 606.519 359.221 605.107 360.483 603.714 361.727 602.078 362.797 600.178 363.69 599.647 363.939 599.309 364.473 599.309 365.058L599.309 368.547C599.309 369.599 600.357 370.33 601.344 369.966 602.58 369.51 603.916 368.849 605.374 367.989L605.376 367.987C605.838 367.716 606.114 367.425 606.526 367.151L606.526 387.193C606.527 388.028 607.204 388.705 608.039 388.705L611.648 388.705C612.483 388.705 613.16 388.028 613.16 387.193L613.16 357.681C613.16 356.846 612.483 356.169 611.648 356.168Z"/><path d="M657.634 349.749 677.192 338.191 657.634 326.634" stroke="#000000" stroke-width="7" stroke-linecap="round" stroke-linejoin="round" stroke-miterlimit="7.3" fill="none"/><path d="M673.658 338.191 599.309 338.191Z" stroke="#000000" stroke-width="7" stroke-linecap="round" stroke-linejoin="round" stroke-miterlimit="7.3" fill="none"/></g></svg>